<svg xmlns="http://www.w3.org/2000/svg" width="114.102" height="105.114" viewBox="0 0 114.102 105.114">
  <g id="Group_565" data-name="Group 565" transform="translate(33.354 -15.051) rotate(30)">
    <g id="banana-leaf" transform="matrix(-0.208, 0.978, -0.978, -0.208, 68.18, 22.431)">
      <g id="Group_557" data-name="Group 557" transform="translate(0.842 5.356)">
        <path id="Path_656" data-name="Path 656" d="M28.655,41.915C19.272,51.3,6.691,51.295.58,51.286a.56.56,0,0,1-.56-.556c-.036-4.472-.38-12.712,3.96-20.816h7L6.733,25.671a31.723,31.723,0,0,1,2.661-3.017l17.04-17.04,5.761,5.761V1.488a17.3,17.3,0,0,1,9.2-1.35A36.692,36.692,0,0,0,51.277.032a36.683,36.683,0,0,0-.107,9.882,17.293,17.293,0,0,1-4.926,14.413L35.623,34.947l-4.774-4.774v9.549Z" transform="translate(0 0)" fill="#378381"/>
      </g>
      <g id="Group_563" data-name="Group 563" transform="translate(0.842 5.356)">
        <g id="Group_560" data-name="Group 560" transform="translate(0 5.614)">
          <g id="Group_558" data-name="Group 558" transform="translate(0 24.3)">
            <path id="Path_657" data-name="Path 657" d="M6.523,3.468c-3.373,6.662-3.67,13.347-3.659,17.894-.833.012-1.6.012-2.284.011a.559.559,0,0,1-.559-.555C-.015,16.344-.36,8.1,3.981,0h7.007l.934.934a1.123,1.123,0,0,1-.794,1.917h-3.6a1.125,1.125,0,0,0-1,.617Z" transform="translate(0 0)" fill="#378381"/>
          </g>
          <g id="Group_559" data-name="Group 559" transform="translate(6.733 0)">
            <path id="Path_658" data-name="Path 658" d="M5.524,19.891c-.705.705-1.937,2-2.752,2.938L0,20.057A31.724,31.724,0,0,1,2.661,17.04L19.7,0l2.857,2.857Z" transform="translate(0)" fill="#378381"/>
          </g>
        </g>
        <g id="Group_561" data-name="Group 561" transform="translate(33.711 33.023)">
          <path id="Path_659" data-name="Path 659" d="M0,0,1.917,1.917l-.006.006L0,.012Z" transform="translate(0 0)" fill="#02905d"/>
        </g>
        <g id="Group_562" data-name="Group 562" transform="translate(32.194 0)">
          <path id="Path_660" data-name="Path 660" d="M12.064,2.989a17.3,17.3,0,0,0-9.2,1.35v7.176a1.123,1.123,0,0,1-1.917.794L0,11.363V1.488A17.3,17.3,0,0,1,9.2.139,36.692,36.692,0,0,0,19.083.032q-.228,1.581-.324,3.175A36.022,36.022,0,0,1,12.064,2.989Z" transform="translate(0)" fill="#378381"/>
        </g>
      </g>
      <g id="Group_564" data-name="Group 564" transform="translate(0 0)">
        <path id="Path_661" data-name="Path 661" d="M.431,18.429a28.5,28.5,0,0,0,6.231-4.712L8.609,11.77V2.57a.842.842,0,0,1,1.437-.6l4.179,4.179L20.132.247a.842.842,0,1,1,1.191,1.191l-6.5,6.5a.842.842,0,0,1-1.191,0L10.293,4.6v7.516a.842.842,0,0,1-.247.6L7.853,14.908a30.177,30.177,0,0,1-6.6,4.991.842.842,0,0,1-.823-1.47Z" transform="translate(22.24 32.958)" fill="#400"/>
        <path id="Path_662" data-name="Path 662" d="M57.238,1.438,52.918,5.757a35.8,35.8,0,0,0-.071,9.406,18.134,18.134,0,0,1-5.166,15.115l-1.34,1.34a.842.842,0,0,1-1.191-1.191l1.34-1.34a16.45,16.45,0,0,0,4.686-13.711,37.054,37.054,0,0,1-.161-7.716l-4.677,4.677a.842.842,0,0,1-1.191-1.191L49.8,6.495a37.042,37.042,0,0,1-7.668-.165A16.445,16.445,0,0,0,33.878,7.4v9.329a.842.842,0,0,1-1.437.6l-5.165-5.165L10.831,28.605A31.268,31.268,0,0,0,8.7,30.962l3.712,3.712a.842.842,0,0,1-.6,1.437H5.332c-3.579,6.965-3.684,14-3.642,18.513l10.65-10.65a8.248,8.248,0,0,1-6.958-2.338.842.842,0,0,1,1.191-1.191,6.58,6.58,0,0,0,9.3,0h0l11.51-11.51a9.8,9.8,0,0,1-1.811.17A9.655,9.655,0,0,1,18.7,26.259a.842.842,0,1,1,1.191-1.191,8.028,8.028,0,0,0,11.36,0h0L42.369,13.947a.842.842,0,0,1,1.191,1.191L42.48,16.217h0a9.3,9.3,0,0,0,0,13.167.842.842,0,1,1-1.191,1.191A10.924,10.924,0,0,1,38.066,22.8a11.074,11.074,0,0,1,.271-2.441L22.914,35.784h0a8.028,8.028,0,0,0,0,11.36.842.842,0,0,1-1.191,1.191,9.654,9.654,0,0,1-2.848-6.871,9.8,9.8,0,0,1,.17-1.811L2.9,55.8a43.835,43.835,0,0,0,16.312-2.755.842.842,0,0,1,.631,1.562c-7.171,2.9-14.214,2.885-18.421,2.879a1.407,1.407,0,0,1-1.4-1.391q0-.36-.008-.752c-.053-4.716-.141-12.61,4.068-20.468a.842.842,0,0,1,.742-.444H9.786L6.98,31.622a.842.842,0,0,1-.07-1.111,32.753,32.753,0,0,1,2.731-3.1l17.04-17.04a.842.842,0,0,1,1.191,0L32.194,14.7V6.844a.842.842,0,0,1,.5-.77,18.126,18.126,0,0,1,9.649-1.415A35.788,35.788,0,0,0,51.7,4.595L56.047.247a.842.842,0,0,1,1.191,1.191Z" fill="#400"/>
      </g>
    </g>
    <g id="banana-leaf-2" data-name="banana-leaf" transform="translate(98.996 44.674) rotate(141)">
      <g id="Group_557-2" data-name="Group 557" transform="translate(0.842 5.356)">
        <path id="Path_656-2" data-name="Path 656" d="M28.655,41.915C19.272,51.3,6.691,51.295.58,51.286a.56.56,0,0,1-.56-.556c-.036-4.472-.38-12.712,3.96-20.816h7L6.733,25.671a31.723,31.723,0,0,1,2.661-3.017l17.04-17.04,5.761,5.761V1.488a17.3,17.3,0,0,1,9.2-1.35A36.692,36.692,0,0,0,51.277.032a36.683,36.683,0,0,0-.107,9.882,17.293,17.293,0,0,1-4.926,14.413L35.623,34.947l-4.774-4.774v9.549Z" transform="translate(0 0)" fill="#378381"/>
      </g>
      <g id="Group_563-2" data-name="Group 563" transform="translate(0.842 5.356)">
        <g id="Group_560-2" data-name="Group 560" transform="translate(0 5.614)">
          <g id="Group_558-2" data-name="Group 558" transform="translate(0 24.3)">
            <path id="Path_657-2" data-name="Path 657" d="M6.523,3.468c-3.373,6.662-3.67,13.347-3.659,17.894-.833.012-1.6.012-2.284.011a.559.559,0,0,1-.559-.555C-.015,16.344-.36,8.1,3.981,0h7.007l.934.934a1.123,1.123,0,0,1-.794,1.917h-3.6a1.125,1.125,0,0,0-1,.617Z" transform="translate(0 0)" fill="#378381"/>
          </g>
          <g id="Group_559-2" data-name="Group 559" transform="translate(6.733 0)">
            <path id="Path_658-2" data-name="Path 658" d="M5.524,19.891c-.705.705-1.937,2-2.752,2.938L0,20.057A31.723,31.723,0,0,1,2.661,17.04L19.7,0l2.857,2.857Z" transform="translate(0 0)" fill="#378381"/>
          </g>
        </g>
        <g id="Group_561-2" data-name="Group 561" transform="translate(33.711 33.023)">
          <path id="Path_659-2" data-name="Path 659" d="M0,0,1.917,1.917l-.006.006L0,.012Z" transform="translate(0 0)" fill="#02905d"/>
        </g>
        <g id="Group_562-2" data-name="Group 562" transform="translate(32.194 0)">
          <path id="Path_660-2" data-name="Path 660" d="M12.064,2.989a17.3,17.3,0,0,0-9.2,1.35v7.176a1.123,1.123,0,0,1-1.917.794L0,11.363V1.488A17.3,17.3,0,0,1,9.2.139,36.692,36.692,0,0,0,19.083.032q-.228,1.581-.324,3.175A36.022,36.022,0,0,1,12.064,2.989Z" transform="translate(0 0)" fill="#378381"/>
        </g>
      </g>
      <g id="Group_564-2" data-name="Group 564" transform="translate(0 0)">
        <path id="Path_661-2" data-name="Path 661" d="M.431,18.429a28.5,28.5,0,0,0,6.231-4.712L8.609,11.77V2.57a.842.842,0,0,1,1.437-.6l4.179,4.179L20.132.247a.842.842,0,1,1,1.191,1.191l-6.5,6.5a.842.842,0,0,1-1.191,0L10.293,4.6v7.516a.842.842,0,0,1-.247.6L7.853,14.908a30.177,30.177,0,0,1-6.6,4.991.842.842,0,0,1-.823-1.47Z" transform="translate(22.24 32.958)" fill="#400"/>
        <path id="Path_662-2" data-name="Path 662" d="M57.238,1.438,52.918,5.757a35.8,35.8,0,0,0-.071,9.406,18.134,18.134,0,0,1-5.166,15.115l-1.34,1.34a.842.842,0,1,1-1.191-1.191l1.34-1.34a16.45,16.45,0,0,0,4.686-13.711,37.055,37.055,0,0,1-.161-7.716l-4.677,4.677a.842.842,0,1,1-1.191-1.191L49.8,6.495a37.042,37.042,0,0,1-7.668-.165A16.445,16.445,0,0,0,33.878,7.4v9.329a.842.842,0,0,1-1.437.6l-5.165-5.165L10.831,28.605A31.267,31.267,0,0,0,8.7,30.962l3.712,3.712a.842.842,0,0,1-.6,1.437H5.332c-3.579,6.965-3.684,14-3.642,18.514l10.65-10.65a8.248,8.248,0,0,1-6.958-2.338.842.842,0,0,1,1.191-1.191,6.58,6.58,0,0,0,9.3,0h0l11.51-11.51a9.8,9.8,0,0,1-1.811.17A9.655,9.655,0,0,1,18.7,26.259a.842.842,0,1,1,1.191-1.191,8.028,8.028,0,0,0,11.36,0h0L42.369,13.947a.842.842,0,0,1,1.191,1.191L42.48,16.217h0a9.3,9.3,0,0,0,0,13.167.842.842,0,1,1-1.191,1.191A10.924,10.924,0,0,1,38.066,22.8a11.073,11.073,0,0,1,.271-2.441L22.914,35.784h0a8.028,8.028,0,0,0,0,11.36.842.842,0,0,1-1.191,1.191,9.654,9.654,0,0,1-2.848-6.871,9.8,9.8,0,0,1,.17-1.811L2.9,55.8a43.834,43.834,0,0,0,16.312-2.755.842.842,0,0,1,.631,1.562c-7.171,2.9-14.214,2.885-18.421,2.879a1.407,1.407,0,0,1-1.4-1.391q0-.36-.008-.752c-.053-4.716-.141-12.61,4.068-20.468a.842.842,0,0,1,.742-.444H9.786L6.98,31.622a.842.842,0,0,1-.07-1.111,32.753,32.753,0,0,1,2.731-3.1l17.04-17.04a.842.842,0,0,1,1.191,0L32.194,14.7V6.844a.842.842,0,0,1,.5-.77,18.126,18.126,0,0,1,9.649-1.415A35.788,35.788,0,0,0,51.7,4.595L56.047.247a.842.842,0,0,1,1.191,1.191Z" fill="#400"/>
      </g>
    </g>
    <g id="banana-leaf-3" data-name="banana-leaf" transform="matrix(-0.996, 0.087, -0.087, -0.996, 108.974, 75.84)">
      <g id="Group_557-3" data-name="Group 557" transform="translate(0.842 5.356)">
        <path id="Path_656-3" data-name="Path 656" d="M28.655,41.915C19.272,51.3,6.691,51.295.58,51.286a.56.56,0,0,1-.56-.556c-.036-4.472-.38-12.712,3.96-20.816h7L6.733,25.671a31.723,31.723,0,0,1,2.661-3.017l17.04-17.04,5.761,5.761V1.488a17.3,17.3,0,0,1,9.2-1.35A36.692,36.692,0,0,0,51.277.032a36.683,36.683,0,0,0-.107,9.882,17.293,17.293,0,0,1-4.926,14.413L35.623,34.947l-4.774-4.774v9.549Z" transform="translate(0 0)" fill="#378381"/>
      </g>
      <g id="Group_563-3" data-name="Group 563" transform="translate(0.842 5.356)">
        <g id="Group_560-3" data-name="Group 560" transform="translate(0 5.614)">
          <g id="Group_558-3" data-name="Group 558" transform="translate(0 24.3)">
            <path id="Path_657-3" data-name="Path 657" d="M6.523,3.468c-3.373,6.662-3.67,13.347-3.659,17.894-.833.012-1.6.012-2.284.011a.559.559,0,0,1-.559-.555C-.015,16.344-.36,8.1,3.981,0h7.007l.934.934a1.123,1.123,0,0,1-.794,1.917h-3.6a1.125,1.125,0,0,0-1,.617Z" transform="translate(0 0)" fill="#378381"/>
          </g>
          <g id="Group_559-3" data-name="Group 559" transform="translate(6.733 0)">
            <path id="Path_658-3" data-name="Path 658" d="M5.524,19.891c-.705.705-1.937,2-2.752,2.938L0,20.057A31.723,31.723,0,0,1,2.661,17.04L19.7,0l2.857,2.857Z" transform="translate(0)" fill="#378381"/>
          </g>
        </g>
        <g id="Group_561-3" data-name="Group 561" transform="translate(33.711 33.023)">
          <path id="Path_659-3" data-name="Path 659" d="M0,0,1.917,1.917l-.006.006L0,.012Z" transform="translate(0 0)" fill="#02905d"/>
        </g>
        <g id="Group_562-3" data-name="Group 562" transform="translate(32.194 0)">
          <path id="Path_660-3" data-name="Path 660" d="M12.064,2.989a17.3,17.3,0,0,0-9.2,1.35v7.176a1.123,1.123,0,0,1-1.917.794L0,11.363V1.488A17.3,17.3,0,0,1,9.2.139,36.692,36.692,0,0,0,19.083.032q-.228,1.581-.324,3.175A36.023,36.023,0,0,1,12.064,2.989Z" transform="translate(0 0)" fill="#378381"/>
        </g>
      </g>
      <g id="Group_564-3" data-name="Group 564" transform="translate(0 0)">
        <path id="Path_661-3" data-name="Path 661" d="M.431,18.429a28.5,28.5,0,0,0,6.231-4.712L8.609,11.77V2.57a.842.842,0,0,1,1.437-.6l4.179,4.179L20.132.247a.842.842,0,1,1,1.191,1.191l-6.5,6.5a.842.842,0,0,1-1.191,0L10.293,4.6v7.516a.842.842,0,0,1-.247.6L7.853,14.908a30.177,30.177,0,0,1-6.6,4.991.842.842,0,0,1-.823-1.47Z" transform="translate(22.24 32.958)" fill="#400"/>
        <path id="Path_662-3" data-name="Path 662" d="M57.238,1.438,52.918,5.757a35.8,35.8,0,0,0-.071,9.406,18.134,18.134,0,0,1-5.166,15.115l-1.34,1.34a.842.842,0,1,1-1.191-1.191l1.34-1.34a16.45,16.45,0,0,0,4.686-13.711,37.055,37.055,0,0,1-.161-7.716l-4.677,4.677a.842.842,0,1,1-1.191-1.191L49.8,6.495a37.042,37.042,0,0,1-7.668-.165A16.445,16.445,0,0,0,33.878,7.4v9.329a.842.842,0,0,1-1.437.6l-5.165-5.165L10.831,28.6A31.268,31.268,0,0,0,8.7,30.962l3.712,3.712a.842.842,0,0,1-.6,1.437H5.332c-3.579,6.965-3.684,14-3.642,18.513l10.65-10.65a8.248,8.248,0,0,1-6.958-2.338.842.842,0,1,1,1.191-1.191,6.58,6.58,0,0,0,9.3,0h0l11.51-11.51a9.8,9.8,0,0,1-1.811.17A9.655,9.655,0,0,1,18.7,26.259a.842.842,0,1,1,1.191-1.191,8.028,8.028,0,0,0,11.36,0h0L42.369,13.947a.842.842,0,0,1,1.191,1.191L42.48,16.217h0a9.3,9.3,0,0,0,0,13.167.842.842,0,0,1-1.191,1.191A10.924,10.924,0,0,1,38.066,22.8a11.073,11.073,0,0,1,.271-2.441L22.914,35.784h0a8.028,8.028,0,0,0,0,11.36.842.842,0,1,1-1.191,1.191,9.654,9.654,0,0,1-2.848-6.871,9.8,9.8,0,0,1,.17-1.811L2.9,55.8a43.835,43.835,0,0,0,16.312-2.755.842.842,0,0,1,.631,1.562c-7.171,2.9-14.214,2.885-18.421,2.879a1.407,1.407,0,0,1-1.4-1.391q0-.36-.008-.752c-.053-4.716-.141-12.61,4.068-20.468a.842.842,0,0,1,.742-.444H9.786L6.98,31.622a.842.842,0,0,1-.07-1.111,32.753,32.753,0,0,1,2.731-3.1l17.04-17.04a.842.842,0,0,1,1.191,0L32.194,14.7V6.844a.842.842,0,0,1,.5-.77,18.126,18.126,0,0,1,9.649-1.415A35.788,35.788,0,0,0,51.7,4.595L56.047.247a.842.842,0,0,1,1.191,1.191Z" fill="#400"/>
      </g>
    </g>
  </g>
</svg>
