<svg id="Group_597" data-name="Group 597" xmlns="http://www.w3.org/2000/svg" width="104.32" height="109.724" viewBox="0 0 104.32 109.724">
  <g id="Group_240" data-name="Group 240" transform="translate(64.877 29.258)">
    <g id="Group_239" data-name="Group 239" transform="translate(0 0)">
      <path id="Path_439" data-name="Path 439" d="M2303.89,1446.742s9.742,1.814,14.335-7.266c4.491-8.878-4.678-19.333-4.924-27.352-.332-10.855,6.921-20.643,19.394-17.622,12.654,3.064,11.321,18.484,5.167,22.477-3.625,2.352-6.782,1.442-7.925-2.606s3.99-6.711,2.125-9.879-8.71-2.947-10.055,3.738,4.544,18.058,5.05,25.438a18.852,18.852,0,0,1-9.536,17.165c-7.14,4.034-13.125,3.279-13.125,3.279Z" transform="translate(-2303.89 -1393.947)" fill="#804959"/>
    </g>
  </g>
  <g id="Group_244" data-name="Group 244" transform="translate(65.126 69.195)" opacity="0.3">
    <g id="Group_243" data-name="Group 243">
      <path id="Path_441" data-name="Path 441" d="M2332.968,2379.789a18.879,18.879,0,0,1-9.55,16.952c-7.14,4.033-13.125,3.279-13.125,3.279l-.256-3.741a28.958,28.958,0,0,0,12.744-3.406A19.685,19.685,0,0,0,2332.968,2379.789Z" transform="translate(-2310.037 -2379.789)" fill="#650000"/>
    </g>
  </g>
  <g id="Group_246" data-name="Group 246" transform="translate(82.775 33.874)" opacity="0.3">
    <g id="Group_245" data-name="Group 245" transform="translate(0)">
      <path id="Path_442" data-name="Path 442" d="M2745.92,1517.554c-.028.146-.055.294-.078.444a12.8,12.8,0,0,1,.089-4.356c1.5-6.7,8.951-6.96,10.961-3.8.95,1.491.2,2.879-.725,4.354a3.027,3.027,0,0,0-.191-.379C2754.111,1510.647,2747.265,1510.869,2745.92,1517.554Z" transform="translate(-2745.702 -1507.885)" fill="#650000"/>
    </g>
  </g>
  <g id="Group_248" data-name="Group 248" transform="translate(90.756 45.515)" opacity="0.3">
    <g id="Group_247" data-name="Group 247" transform="translate(0 0)">
      <path id="Path_443" data-name="Path 443" d="M2954.981,1795.244a10.853,10.853,0,0,1-4.174,6.776c-3.626,2.352-6.781,1.441-7.925-2.608a5.337,5.337,0,0,1,.648-4.043.7.7,0,0,0,.023.085c1.218,4.043,4.646,4.934,8.6,2.56A9.093,9.093,0,0,0,2954.981,1795.244Z" transform="translate(-2942.713 -1795.244)" fill="#650000"/>
    </g>
  </g>
  <g id="Group_250" data-name="Group 250" transform="translate(64.107 28.548)">
    <g id="Group_249" data-name="Group 249" transform="translate(0 0)">
      <path id="Path_444" data-name="Path 444" d="M2287.438,1438.058a11.637,11.637,0,0,1-1.359-.065l-.579-.073-.608-8.866.9.168a14.366,14.366,0,0,0,5.21-.234,12.088,12.088,0,0,0,8.363-6.655c2.645-5.229.255-11.124-2.057-16.825-1.464-3.611-2.846-7.021-2.943-10.185-.2-6.432,2.189-12.3,6.384-15.709,3.716-3.016,8.518-3.923,13.886-2.624a12.718,12.718,0,0,1,10.038,10.5c.9,5.257-1.1,10.958-4.652,13.261-2.075,1.347-4.051,1.728-5.712,1.1a5.716,5.716,0,0,1-3.281-4.11c-.645-2.282.421-4.123,1.361-5.747.974-1.683,1.536-2.775.835-3.965a4.013,4.013,0,0,0-4.134-1.559c-2.33.392-4.055,2.29-4.616,5.078-.747,3.716.9,9.139,2.5,14.383,1.206,3.961,2.345,7.7,2.562,10.867a19.475,19.475,0,0,1-9.9,17.831A25.192,25.192,0,0,1,2287.438,1438.058Zm-.606-1.434a23.624,23.624,0,0,0,12.112-3.231,18.033,18.033,0,0,0,9.178-16.5c-.206-3-1.322-6.67-2.5-10.551-1.648-5.412-3.352-11.008-2.533-15.075.681-3.386,2.838-5.7,5.77-6.2a5.372,5.372,0,0,1,5.591,2.238c1.156,1.964.147,3.708-.829,5.394-.877,1.515-1.706,2.946-1.224,4.652a4.382,4.382,0,0,0,2.416,3.169c1.224.461,2.759.127,4.441-.964,3.052-1.98,4.821-7.178,4.027-11.833a11.216,11.216,0,0,0-8.974-9.36c-4.922-1.192-9.3-.38-12.659,2.347-3.853,3.127-6.043,8.572-5.86,14.565.089,2.91,1.425,6.206,2.84,9.7,2.317,5.716,4.943,12.194,2.008,18a13.608,13.608,0,0,1-9.365,7.41,16.232,16.232,0,0,1-4.837.343Z" transform="translate(-2284.893 -1376.413)" fill="#650000"/>
    </g>
  </g>
  <g id="Group_252" data-name="Group 252" transform="translate(22.334 49.384)">
    <g id="Group_251" data-name="Group 251" transform="translate(0 0)">
      <path id="Path_445" data-name="Path 445" d="M1303.958,1940.311c-.89,9.612-7.863,8.912-10.425,4.073-2.472-4.67-4.637-8.793-8.391-8.458l-5.553.675c-10.166.09-13.432,9.358-13.432,9.358a45.058,45.058,0,0,1-9.649.572c-2.135-.222-1.9.936-2.487-2.25-1.958-10.56,6.286-16.435,6.286-16.435a82.2,82.2,0,0,0,.11-14.608l-.023-2.884-.087-10.994,32.706-8.609c.787,1.113,1.581,2.325,2.362,3.614a69.86,69.86,0,0,1,4.2,8.065,62.574,62.574,0,0,1,2.305,6.028c1.864,5.772,2.794,11.793,1.9,17.174C1302.825,1931.317,1304.328,1936.3,1303.958,1940.311Z" transform="translate(-1253.72 -1890.751)" fill="#804959"/>
    </g>
  </g>
  <g id="Group_254" data-name="Group 254" transform="translate(22.465 68.866)" opacity="0.3">
    <g id="Group_253" data-name="Group 253" transform="translate(0)">
      <path id="Path_446" data-name="Path 446" d="M1307.05,2401.75c-.89,9.612-7.863,8.912-10.425,4.073-2.472-4.67-4.637-8.793-8.391-8.458l-5.553.675c-10.166.091-13.431,9.358-13.431,9.358a45.063,45.063,0,0,1-9.649.573c-2.135-.222-1.9.935-2.488-2.25q-.1-.564-.17-1.106c.28.138.755-.1,1.823.014a31.557,31.557,0,0,0,5.724-.082,5.219,5.219,0,0,0,4.542-3.709c.918-3.113,3.15-7.163,8.475-5.715a28.223,28.223,0,0,0,9.966.327c3.754-.335,7.316,1.509,9.218,6.913,1.817,5.165,8.634,5.658,9.524-3.953.37-4.011-1.132-8.994-.184-14.679a32.717,32.717,0,0,0-.521-12.057,35.684,35.684,0,0,1,1.355,15.4C1305.918,2392.756,1307.42,2397.738,1307.05,2401.75Z" transform="translate(-1256.943 -2371.672)" fill="#650000"/>
    </g>
  </g>
  <g id="Group_256" data-name="Group 256" transform="translate(5.422 50.355)">
    <g id="Group_255" data-name="Group 255" transform="translate(0)">
      <path id="Path_447" data-name="Path 447" d="M861.811,1936.824a29.89,29.89,0,0,1-16.636-1.1c-5.987-2.314-9.808-6.659-8.774-11.727,1.837-9.01,21.665-12.027,27.133-6.524,2.646,2.663,4.167,6.513-.369,8.859" transform="translate(-836.232 -1914.715)" fill="#804959"/>
    </g>
  </g>
  <g id="Group_258" data-name="Group 258" transform="translate(49.233 63.56)">
    <g id="Group_257" data-name="Group 257">
      <path id="Path_448" data-name="Path 448" d="M1917.726,2240.687" transform="translate(-1917.726 -2240.687)" fill="none" stroke="#650000" stroke-linecap="round" stroke-width="34.989"/>
    </g>
  </g>
  <g id="Group_260" data-name="Group 260" transform="translate(33.449 63.958)">
    <g id="Group_259" data-name="Group 259" transform="translate(0 0)">
      <ellipse id="Ellipse_12" data-name="Ellipse 12" cx="13.304" cy="12.859" rx="13.304" ry="12.859" transform="translate(0 2.867) rotate(-6.186)" fill="#ffca9f"/>
    </g>
  </g>
  <g id="Group_262" data-name="Group 262" transform="translate(21.629 48.675)">
    <g id="Group_261" data-name="Group 261" transform="translate(0)">
      <path id="Path_449" data-name="Path 449" d="M1281.9,1931.746a6.756,6.756,0,0,1-5.691-3.833l-.035-.066c-2.358-4.454-4.391-8.3-7.656-8.019l-5.62.678a13.084,13.084,0,0,0-9.971,4.439,14.98,14.98,0,0,0-2.8,4.449l-.14.392-.411.07a45.234,45.234,0,0,1-9.84.578,5.11,5.11,0,0,0-1.122.008c-1.438.14-1.561-.524-1.969-2.724l-.021-.111a17.133,17.133,0,0,1,2.511-12.693,18.34,18.34,0,0,1,3.794-4.246,80.128,80.128,0,0,0,.084-14.148.709.709,0,0,1,1.407-.17,81.855,81.855,0,0,1-.109,14.763l-.032.32-.262.187a16.553,16.553,0,0,0-3.724,4.113,15.526,15.526,0,0,0-2.276,11.615l.021.112c.132.713.242,1.3.327,1.582l.11-.01a6.56,6.56,0,0,1,1.406-.007,42.607,42.607,0,0,0,9.066-.5,16.767,16.767,0,0,1,2.884-4.481,14.636,14.636,0,0,1,11.009-4.949l5.537-.673c4.206-.375,6.556,4.066,9.045,8.767l.035.066c1.137,2.147,3.233,3.388,5.1,3.014,2.178-.436,3.635-2.922,4-6.823a30.484,30.484,0,0,0-.2-5.346,35.612,35.612,0,0,1,.02-9.383c1.8-10.785-4.049-25.026-10.641-34.356a.709.709,0,1,1,1.158-.818,68.893,68.893,0,0,1,8.491,16.5c2.456,7.01,3.283,13.546,2.39,18.9a34.478,34.478,0,0,0-.007,9.02,31.435,31.435,0,0,1,.2,5.606c-.6,6.489-3.786,7.813-5.129,8.082A4.819,4.819,0,0,1,1281.9,1931.746Z" transform="translate(-1236.315 -1873.239)" fill="#650000"/>
    </g>
  </g>
  <g id="Group_264" data-name="Group 264" transform="translate(38.968 94.055)">
    <g id="Group_263" data-name="Group 263" transform="translate(0 0)">
      <path id="Path_450" data-name="Path 450" d="M1673.635,2995.332a8.78,8.78,0,0,1-1.208.141c-.4.025-.8.025-1.2.013a16.262,16.262,0,0,1-2.376-.265,15.891,15.891,0,0,1-2.317-.593,11.737,11.737,0,0,1-2.165-.987.1.1,0,0,1,.07-.189h0c.769.143,1.517.28,2.276.352s1.509.133,2.265.146,1.507,0,2.258,0,1.513-.032,2.233-.025h.03a.71.71,0,0,1,.127,1.408Z" transform="translate(-1664.321 -2993.45)" fill="#650000"/>
    </g>
  </g>
  <g id="Group_273" data-name="Group 273" transform="translate(58.531 101.949)">
    <g id="Group_266" data-name="Group 266" transform="translate(0.708 0.711)">
      <g id="Group_265" data-name="Group 265">
        <path id="Path_451" data-name="Path 451" d="M2169.635,3206.079s-5.494,1.066-4.868,3.33c.428,1.546,4.238.329,4.238.329a13.361,13.361,0,0,0,8.215,2.33c2.906-.272,1.508-1.824,1.612-1.956s2.328.945,3.143.507a.921.921,0,0,0,.308-1.485c.012-.052.788.059,1.037-.238.733-.873-2.19-2.055-3.939-2.456A34.706,34.706,0,0,0,2169.635,3206.079Z" transform="translate(-2164.718 -3205.887)" fill="#ffca9f"/>
      </g>
    </g>
    <g id="Group_268" data-name="Group 268" transform="translate(0 0)">
      <g id="Group_267" data-name="Group 267">
        <path id="Path_452" data-name="Path 452" d="M2159.5,3195.973a14.248,14.248,0,0,1-7.392-2.306c-.865.242-2.857.693-3.99.08a1.6,1.6,0,0,1-.81-1,2.014,2.014,0,0,1,.247-1.633c1.081-1.744,4.754-2.5,5.169-2.582l.056-.009a35,35,0,0,1,9.984.374c.04.01,4.026.94,4.543,2.482a1.144,1.144,0,0,1-.219,1.121,1.233,1.233,0,0,1-.61.38,1.479,1.479,0,0,1-.023.368,1.648,1.648,0,0,1-.92,1.143,3.483,3.483,0,0,1-2.528-.131,1.421,1.421,0,0,1-.191.611,2.772,2.772,0,0,1-2.3,1.05C2160.169,3195.958,2159.832,3195.973,2159.5,3195.973Zm-7.143-3.867.291.213a12.741,12.741,0,0,0,7.73,2.2c.873-.082,1.171-.283,1.213-.354.012-.022.014-.1-.119-.4a.858.858,0,0,1,.028-.936c.342-.433.777-.29,1.437-.072a5.186,5.186,0,0,0,1.93.392c.152-.082.193-.147.2-.16a.47.47,0,0,0-.1-.252l-.227-.27.085-.336c.084-.367.369-.559.848-.569a10.85,10.85,0,0,0-3.217-1.277,34.032,34.032,0,0,0-9.481-.35c-1.339.266-3.64,1.018-4.206,1.932a.6.6,0,0,0-.085.508c.009.031.021.075.118.128.59.319,2.271.019,3.221-.285Z" transform="translate(-2147.234 -3188.329)" fill="#650000"/>
      </g>
    </g>
    <g id="Group_270" data-name="Group 270" transform="translate(11.602 3.037)">
      <g id="Group_269" data-name="Group 269">
        <path id="Path_453" data-name="Path 453" d="M2433.989,3263.31c.293.074.567.158.847.254s.553.2.827.323a5.844,5.844,0,0,1,1.587,1l.006.006a.611.611,0,1,1-.823.9.634.634,0,0,1-.083-.093,4.8,4.8,0,0,0-1.119-1.039c-.221-.155-.453-.3-.691-.439s-.486-.27-.728-.385l-.009,0a.278.278,0,0,1,.187-.521Z" transform="translate(-2433.643 -3263.302)" fill="#650000"/>
      </g>
    </g>
    <g id="Group_272" data-name="Group 272" transform="translate(15.239 2.617)">
      <g id="Group_271" data-name="Group 271">
        <path id="Path_454" data-name="Path 454" d="M2523.732,3252.941c.275.035.534.081.8.134s.527.116.79.188a7.287,7.287,0,0,1,1.572.618l.006,0a.611.611,0,0,1-.588,1.072.635.635,0,0,1-.1-.072,6.244,6.244,0,0,0-1.208-.783c-.223-.113-.451-.22-.685-.319s-.474-.194-.706-.274l-.01,0a.291.291,0,0,1,.133-.564Z" transform="translate(-2523.403 -3252.939)" fill="#650000"/>
      </g>
    </g>
  </g>
  <g id="Group_275" data-name="Group 275" transform="translate(61.989 42.39)">
    <g id="Group_274" data-name="Group 274" transform="translate(0 0)">
      <path id="Path_455" data-name="Path 455" d="M2264.069,1730.383c-7.232,8.269-18.55,11.729-22.96,12.409a6.593,6.593,0,0,1-1.634.112l-2.362-4.706-4.507-8.977s.71-.165,2-.521c1.694-.468,4.385-1.265,7.77-2.45a145.684,145.684,0,0,0,17.714-7.558C2265.591,1715.9,2270.2,1723.377,2264.069,1730.383Z" transform="translate(-2232.606 -1718.09)" fill="#804959"/>
    </g>
  </g>
  <g id="Group_279" data-name="Group 279" transform="translate(68.672 42.527)" opacity="0.3">
    <g id="Group_278" data-name="Group 278" transform="translate(0 0)">
      <path id="Path_457" data-name="Path 457" d="M2422.355,1733.647c-8.515,9.736-22.7,12.8-24.594,12.521h0a1.739,1.739,0,0,1,1.167-2.475c5.366-1.233,15.175-4.7,21.454-11.875,3.37-3.854,2.893-7.972,1.406-10.325C2425.388,1722.446,2427.126,1728.19,2422.355,1733.647Z" transform="translate(-2397.575 -1721.493)" fill="#650000"/>
    </g>
  </g>
  <g id="Group_281" data-name="Group 281" transform="translate(61.28 41.69)">
    <g id="Group_280" data-name="Group 280" transform="translate(0)">
      <path id="Path_458" data-name="Path 458" d="M2223,1727.052a2.824,2.824,0,0,1-.413-.025.709.709,0,1,1,.21-1.4c1.408.214,15.451-2.564,23.954-12.286,3.363-3.845,3.238-7.725,1.7-9.7a3.646,3.646,0,0,0-4.823-.891,137.069,137.069,0,0,1-27.644,10.589.709.709,0,1,1-.321-1.381,135.623,135.623,0,0,0,27.322-10.472,5.1,5.1,0,0,1,6.584,1.284c1.885,2.423,2.14,7.057-1.751,11.506C2239.7,1723.56,2226.3,1727.052,2223,1727.052Z" transform="translate(-2215.117 -1700.813)" fill="#650000"/>
    </g>
  </g>
  <g id="Group_283" data-name="Group 283" transform="translate(69.287 26.951)">
    <g id="Group_282" data-name="Group 282" transform="translate(0)">
      <path id="Path_459" data-name="Path 459" d="M2412.769,1343.467a6.547,6.547,0,0,1,5.58-6.361c5.384-.951,8.727,3.85,8.8,7.89.082,4.245-1.7,6.827-4.75,8.407a15.145,15.145,0,0,1-6.849,1.47" transform="translate(-2412.769 -1336.984)" fill="#ffca9f"/>
    </g>
  </g>
  <g id="Group_287" data-name="Group 287" transform="translate(69.692 32.175)">
    <g id="Group_286" data-name="Group 286">
      <path id="Path_461" data-name="Path 461" d="M2422.766,1469.511a3.686,3.686,0,0,1,3.248-3.491,4.28,4.28,0,0,1,5.022,4.24,4.66,4.66,0,0,1-2.782,4.6,9.259,9.259,0,0,1-3.95.838" transform="translate(-2422.766 -1465.945)" fill="#f28475"/>
    </g>
  </g>
  <g id="Group_307" data-name="Group 307" transform="translate(69.871 35.983)">
    <g id="Group_306" data-name="Group 306" transform="translate(0 0)">
      <path id="Path_471" data-name="Path 471" d="M2432.75,1563.031a3.465,3.465,0,0,1-.965,2.326,12.7,12.7,0,0,1-3.338.576l-1.265-4.627a2.564,2.564,0,0,1,.509-1.228c.083-.018.167-.034.254-.05C2431.049,1559.481,2432.822,1561.367,2432.75,1563.031Z" transform="translate(-2427.182 -1559.932)" fill="#f29f8f"/>
    </g>
  </g>
  <g id="Group_289" data-name="Group 289" transform="translate(68.984 31.465)">
    <g id="Group_288" data-name="Group 288">
      <path id="Path_462" data-name="Path 462" d="M2407.65,1459.587c-.09,0-.145,0-.158,0a.709.709,0,0,1,.052-1.417,8.616,8.616,0,0,0,3.609-.765,3.975,3.975,0,0,0,2.388-3.958,3.863,3.863,0,0,0-1.368-2.855,3.349,3.349,0,0,0-2.822-.694,2.947,2.947,0,0,0-2.662,2.8.709.709,0,0,1-.708.7h0a.709.709,0,0,1-.7-.713,4.382,4.382,0,0,1,3.833-4.185,4.728,4.728,0,0,1,3.974,1,5.316,5.316,0,0,1,1.88,3.932,5.39,5.39,0,0,1-3.175,5.241A9.9,9.9,0,0,1,2407.65,1459.587Z" transform="translate(-2405.272 -1448.414)" fill="#650000"/>
    </g>
  </g>
  <g id="Group_291" data-name="Group 291" transform="translate(68.579 26.242)">
    <g id="Group_290" data-name="Group 290" transform="translate(0 0)">
      <path id="Path_463" data-name="Path 463" d="M2399.123,1338.8c-.225,0-.362-.006-.389-.007a.709.709,0,1,1,.07-1.416,14.534,14.534,0,0,0,6.488-1.391c3.051-1.58,4.438-4.047,4.367-7.765a8.142,8.142,0,0,0-2.823-5.9,6.177,6.177,0,0,0-5.15-1.3,5.81,5.81,0,0,0-4.994,5.662.71.71,0,0,1-.708.709h0a.708.708,0,0,1-.708-.7,7.3,7.3,0,0,1,6.165-7.062,7.558,7.558,0,0,1,6.3,1.6,9.483,9.483,0,0,1,3.34,6.971c.082,4.26-1.6,7.22-5.133,9.05A15.651,15.651,0,0,1,2399.123,1338.8Z" transform="translate(-2395.274 -1319.482)" fill="#650000"/>
    </g>
  </g>
  <g id="Group_293" data-name="Group 293" transform="translate(0.713 38.906)">
    <g id="Group_292" data-name="Group 292" transform="translate(0 0)">
      <path id="Path_464" data-name="Path 464" d="M733.444,1636.315a6.547,6.547,0,0,0-7.413-4.08c-5.386.94-6.894,6.592-5.591,10.417,1.369,4.019,3.92,5.841,7.329,6.287a15.15,15.15,0,0,0,6.94-.951" transform="translate(-720 -1632.109)" fill="#ffca9f"/>
    </g>
  </g>
  <g id="Group_297" data-name="Group 297" transform="translate(0.721 47.059)" opacity="0.3">
    <g id="Group_296" data-name="Group 296" transform="translate(0 0)">
      <path id="Path_466" data-name="Path 466" d="M720.623,1835.75c1.37,4.02,3.92,5.842,7.329,6.288a15.156,15.156,0,0,0,6.94-.952l-.271-2.5a16.151,16.151,0,0,1-6.757.743,9.023,9.023,0,0,1-7.674-5.968A8.453,8.453,0,0,0,720.623,1835.75Z" transform="translate(-720.19 -1833.36)" fill="#650000"/>
    </g>
  </g>
  <g id="Group_299" data-name="Group 299" transform="translate(71.477 32.568)" opacity="0.3">
    <g id="Group_298" data-name="Group 298">
      <path id="Path_467" data-name="Path 467" d="M2479.006,1478.038c.082,4.246-1.7,6.828-4.749,8.409a15.156,15.156,0,0,1-6.85,1.468l-.6-2.442a16.151,16.151,0,0,0,6.606-1.6,9.023,9.023,0,0,0,5.183-8.225A8.455,8.455,0,0,1,2479.006,1478.038Z" transform="translate(-2466.811 -1475.644)" fill="#650000"/>
    </g>
  </g>
  <g id="Group_301" data-name="Group 301" transform="translate(6.804 43.166)">
    <g id="Group_300" data-name="Group 300" transform="translate(0)">
      <path id="Path_468" data-name="Path 468" d="M878.117,1739.517a3.686,3.686,0,0,0-4.243-2.176,4.28,4.28,0,0,0-3.277,5.7,4.66,4.66,0,0,0,4.182,3.377,9.262,9.262,0,0,0,4-.557" transform="translate(-870.359 -1737.264)" fill="#f28475"/>
    </g>
  </g>
  <g id="Group_303" data-name="Group 303" transform="translate(6.804 43.165)">
    <g id="Group_302" data-name="Group 302" transform="translate(0)">
      <path id="Path_469" data-name="Path 469" d="M870.6,1743.016a4.659,4.659,0,0,0,4.181,3.376c.225.025.447.038.666.042a9.581,9.581,0,0,0,3.334-.6l-.661-6.341a3.785,3.785,0,0,0-.961-1.347,3.7,3.7,0,0,0-3.282-.829A4.281,4.281,0,0,0,870.6,1743.016Z" transform="translate(-870.362 -1737.241)" fill="#f28475"/>
    </g>
  </g>
  <g id="Group_305" data-name="Group 305" transform="translate(10.921 45.877)">
    <g id="Group_304" data-name="Group 304" transform="translate(0 0)">
      <path id="Path_470" data-name="Path 470" d="M972.165,1808.687a3.465,3.465,0,0,0,1.7,1.859,12.708,12.708,0,0,0,3.335-.6l-.387-4.781a2.563,2.563,0,0,0-.9-.981c-.084.011-.168.025-.255.04C972.554,1804.77,971.53,1807.147,972.165,1808.687Z" transform="translate(-971.986 -1804.188)" fill="#f29f8f"/>
    </g>
  </g>
  <g id="Group_309" data-name="Group 309" transform="translate(6.096 42.459)">
    <g id="Group_308" data-name="Group 308" transform="translate(0)">
      <path id="Path_472" data-name="Path 472" d="M858.785,1730.407a7.6,7.6,0,0,1-.861-.048,5.39,5.39,0,0,1-4.771-3.846,5.316,5.316,0,0,1,.428-4.337,4.729,4.729,0,0,1,3.4-2.293,4.383,4.383,0,0,1,5.03,2.629.709.709,0,0,1-1.329.494,2.942,2.942,0,0,0-3.457-1.727,3.349,3.349,0,0,0-2.416,1.613,3.862,3.862,0,0,0-.314,3.151,3.974,3.974,0,0,0,3.594,2.907,8.61,8.61,0,0,0,3.654-.51.709.709,0,0,1,.531,1.314A10.251,10.251,0,0,1,858.785,1730.407Z" transform="translate(-852.875 -1719.798)" fill="#650000"/>
    </g>
  </g>
  <g id="Group_311" data-name="Group 311" transform="translate(0 38.197)">
    <g id="Group_310" data-name="Group 310" transform="translate(0 0)">
      <path id="Path_473" data-name="Path 473" d="M712.379,1632.946a12.237,12.237,0,0,1-1.589-.1c-3.948-.517-6.534-2.728-7.908-6.761a9.484,9.484,0,0,1,.765-7.692,7.558,7.558,0,0,1,5.375-3.652,7.3,7.3,0,0,1,8.2,4.54.709.709,0,0,1-1.334.479h0a5.811,5.811,0,0,0-6.624-3.622,6.179,6.179,0,0,0-4.4,2.978,8.141,8.141,0,0,0-.643,6.512c1.2,3.52,3.344,5.367,6.751,5.813a14.545,14.545,0,0,0,6.574-.9.709.709,0,0,1,.548,1.307A16.287,16.287,0,0,1,712.379,1632.946Z" transform="translate(-702.398 -1614.604)" fill="#650000"/>
    </g>
  </g>
  <g id="Group_313" data-name="Group 313" transform="translate(9.551 0.709)">
    <g id="Group_312" data-name="Group 312" transform="translate(0 0)">
      <path id="Path_474" data-name="Path 474" d="M938.814,729.1c1.04,4.5,3.123,9.1,5.988,11.943-2.035.755-2.709,2.967-2.637,5.128a9.279,9.279,0,0,0,.771,3.465c1.526,3.307,4.74,4.89,9.031,5.632.276.046.554.091.839.132a9.456,9.456,0,0,1-2.2-.884,10.026,10.026,0,0,1-4.87-5.672c-.017-.075-.033-.15-.048-.224s-.032-.171-.041-.254-.021-.138-.028-.205a5.279,5.279,0,0,1,1.139-3.948,7.64,7.64,0,0,1,2.491-2.034s-8.005-10.266-3.67-21.106c.035-.088.069-.176.106-.263,2.465-5.9,6.579-8.728,10.664-9.51a.071.071,0,0,1,.026,0c5.286-1,10.515,1.431,12.044,5.093a5.763,5.763,0,0,1,.364,1.232l.136-.024c-.743-4.235,3.445-9.016,9.145-10.108,4.188-.8,9.193.384,13.658,5.24.064.068.128.14.189.211,7.769,8.716,3.74,21.094,3.74,21.094l.024,0a7.692,7.692,0,0,1,2.715.887,5.338,5.338,0,0,1,2.679,3.374,5.279,5.279,0,0,1,.124.579,6.625,6.625,0,0,1-.163,2.552v0a11.238,11.238,0,0,1-1.955,4.054,9.826,9.826,0,0,1-2.264,2.191c4.2-2.243,6.991-4.919,7.318-8.782a9.359,9.359,0,0,0-.514-3.691c-.691-1.987-2.06-3.736-4.168-3.753,1.725-3.647,2.114-8.686,1.562-13.268-1.741-14.4-15.179-24.3-29.92-24.232,0,0,0,0,0,0-1.353-.181-3.541-.494-6.474-.972a15.3,15.3,0,0,1-7.321-3.619.617.617,0,0,0-.978.226,24.522,24.522,0,0,0-1.113,4.966.619.619,0,0,1-.821.5c-.681-.243-1.84-1.26-2.86-1.8a.617.617,0,0,0-.885.392,14.982,14.982,0,0,0-.017,6.706C941.466,706.929,936.232,717.935,938.814,729.1Z" transform="translate(-938.156 -689.198)" fill="#804959"/>
    </g>
  </g>
  <g id="Group_317" data-name="Group 317" transform="translate(8.844 11.153)">
    <g id="Group_316" data-name="Group 316" transform="translate(0 0)">
      <path id="Path_476" data-name="Path 476" d="M936.072,1003.473a.7.7,0,0,1-.1-.007c-5.53-.8-8.839-2.756-10.413-6.169a9.464,9.464,0,0,1-.316-6.977,4.618,4.618,0,0,1,1.667-2.109,26.969,26.969,0,0,1-5.519-11.587,26.525,26.525,0,0,1,1.541-16.53,31.162,31.162,0,0,1,10.541-12.95.709.709,0,0,1,.827,1.151c-9.381,6.74-13.906,17.735-11.528,28.009,1.1,4.753,3.266,9.089,5.8,11.6l.788.782-1.041.386a3.031,3.031,0,0,0-1.763,1.789,8.174,8.174,0,0,0,.293,5.843c1.373,2.976,4.25,4.629,9.328,5.36a.709.709,0,0,1-.1,1.41Z" transform="translate(-920.714 -947.011)" fill="#650000"/>
    </g>
  </g>
  <g id="Group_319" data-name="Group 319" transform="translate(41.952 4.745)">
    <g id="Group_318" data-name="Group 318" transform="translate(0 0)">
      <path id="Path_477" data-name="Path 477" d="M1764.234,843.964a.709.709,0,0,1-.334-1.334c4.527-2.418,6.669-4.952,6.946-8.216a8.182,8.182,0,0,0-1.717-5.595,3.03,3.03,0,0,0-2.264-1.081l-1.11-.008.475-1c1.545-3.267,2.092-7.962,1.5-12.88-1.573-13.015-13.176-22.919-27.606-23.575h-.008l-.08,0c-.422-.02-.858-.031-1.334-.032h-.027l-.041,0a.709.709,0,0,1,.072-1.415h.01c.469,0,.9.011,1.323.031h.007l.06,0a32.5,32.5,0,0,1,19.264,7.283,27.687,27.687,0,0,1,8.523,30.316,4.618,4.618,0,0,1,2.283,1.413,9.471,9.471,0,0,1,2.082,6.669c-.318,3.744-2.761,6.714-7.691,9.347A.705.705,0,0,1,1764.234,843.964Z" transform="translate(-1737.978 -788.82)" fill="#650000"/>
    </g>
  </g>
  <g id="Group_321" data-name="Group 321" transform="translate(20.965 49.384)" opacity="0.3">
    <g id="Group_320" data-name="Group 320" transform="translate(0 0)">
      <path id="Path_478" data-name="Path 478" d="M1271.391,1895.81c0,.089,0,.175-.007.264-.051,1-1.506,3.774-4.24,6.357a20.522,20.522,0,0,1-1.69,1.434,19.316,19.316,0,0,1-3.3,2.032c-13.959,6.74-22.583,5.588-28.15,5.209a56.9,56.9,0,0,1-14.077-2.691l7.956-9.054,32.707-8.609c.787,1.113,1.58,2.325,2.362,3.614,1.694-.468,4.385-1.265,7.769-2.45a12.492,12.492,0,0,1,.585,1.148c.018.037.036.076.053.115s-.4.569-.383.625A5.15,5.15,0,0,1,1271.391,1895.81Z" transform="translate(-1219.922 -1890.751)" fill="#650000"/>
    </g>
  </g>
  <g id="Group_323" data-name="Group 323" transform="translate(15.403 18.838)">
    <g id="Group_322" data-name="Group 322" transform="translate(0 0)">
      <path id="Path_479" data-name="Path 479" d="M1084.236,1178.036a2.1,2.1,0,0,0,.11.2,20.189,20.189,0,0,0,4.87,5.672,6.671,6.671,0,0,0,1.36.752,4.34,4.34,0,0,0,.554.182c.4.058.811.108,1.227.152.133.016.266.028.4.04,2.19.206,3.42.5,4.892.681a26.313,26.313,0,0,0,4.61.137,110.231,110.231,0,0,0,11.352-.785,70.762,70.762,0,0,0,15.823-5.183,52.1,52.1,0,0,0,7.189-3.982s0,0,0,0a12.818,12.818,0,0,0,1.062-1.023,6.6,6.6,0,0,0,1.956-4.054v0a5.109,5.109,0,0,0-.412-2.27c-.021-.056.406-.573.382-.624s-.034-.079-.053-.116a8.7,8.7,0,0,0-2.556-3.5,3.968,3.968,0,0,0-2.714-.887,1.812,1.812,0,0,0-.31.048s3.892-12.354-3.877-21.07c-.063-.072-.126-.142-.191-.21-4.316-4.693-9.134-5.959-13.234-5.314-5.338.84-9.454,4.923-9.645,8.9a5.785,5.785,0,0,0,.078,1.282c-.747-4.255-6.362-7.332-12.121-6.375a.077.077,0,0,0-.026,0c-4.177.7-8.427,3.525-10.95,9.56-.037.086-.071.173-.106.262-4.336,10.841,3.67,21.106,3.67,21.106a3.692,3.692,0,0,0-2.205,1.984,9.985,9.985,0,0,0-1.1,3.969c0,.06-.011.122-.015.184C1084.25,1177.852,1084.242,1177.944,1084.236,1178.036Z" transform="translate(-1082.618 -1136.729)" fill="#ffca9f"/>
    </g>
  </g>
  <g id="Group_327" data-name="Group 327" transform="translate(30.241 54.639)">
    <g id="Group_326" data-name="Group 326" transform="translate(0 0)">
      <ellipse id="Ellipse_14" data-name="Ellipse 14" cx="3.492" cy="1.94" rx="3.492" ry="1.94" transform="matrix(0.985, -0.173, 0.173, 0.985, 0, 1.208)" fill="#f28475"/>
    </g>
  </g>
  <g id="Group_329" data-name="Group 329" transform="translate(20.941)">
    <g id="Group_328" data-name="Group 328" transform="translate(0 0)">
      <path id="Path_480" data-name="Path 480" d="M1220.4,684.269a.709.709,0,0,1-.693-.564,15.719,15.719,0,0,1,.023-7.025,1.326,1.326,0,0,1,1.9-.846,14.792,14.792,0,0,1,1.533.984,9.757,9.757,0,0,0,1.13.728,24.928,24.928,0,0,1,1.147-5.033,1.327,1.327,0,0,1,2.1-.483,16.242,16.242,0,0,0,7,3.458,35.7,35.7,0,0,0,7.86.988.709.709,0,0,1,.076,1.415,35.947,35.947,0,0,1-8.224-1.016,17.8,17.8,0,0,1-7.548-3.7,25.438,25.438,0,0,0-1.017,4.665,1.326,1.326,0,0,1-1.76,1.084,7.568,7.568,0,0,1-1.574-.947,15.1,15.1,0,0,0-1.275-.834,14.383,14.383,0,0,0,.019,6.269.709.709,0,0,1-.694.854Z" transform="translate(-1219.332 -671.698)" fill="#650000"/>
    </g>
  </g>
  <g id="Group_331" data-name="Group 331" transform="translate(44.961 51.185)">
    <g id="Group_330" data-name="Group 330" transform="translate(0 0)">
      <path id="Path_481" data-name="Path 481" d="M1812.586,1936.971a.214.214,0,0,1-.307-.186c-.016-.467.054-1.286.7-1.507a.713.713,0,0,1,1.043.693c-.045.281-.239.485-.66.654C1813.1,1936.728,1812.8,1936.865,1812.586,1936.971Z" transform="translate(-1812.277 -1935.211)" fill="#650000"/>
    </g>
  </g>
  <g id="Group_333" data-name="Group 333" transform="translate(41.118 51.908)">
    <g id="Group_332" data-name="Group 332" transform="translate(0)">
      <path id="Path_482" data-name="Path 482" d="M1719.154,1954.51a.214.214,0,0,0,.225-.28c-.144-.444-.489-1.191-1.169-1.179a.713.713,0,0,0-.744,1.007c.138.249.39.375.843.39C1718.588,1954.458,1718.916,1954.485,1719.154,1954.51Z" transform="translate(-1717.405 -1953.052)" fill="#650000"/>
    </g>
  </g>
  <g id="Group_335" data-name="Group 335" transform="translate(42.21 53.943)">
    <g id="Group_334" data-name="Group 334" transform="translate(0)">
      <path id="Path_483" data-name="Path 483" d="M1745,2006.359a4.521,4.521,0,0,0,1.678.492,2.827,2.827,0,0,0,1.541-.327c.114-.063.218-.142.331-.208.094-.09.2-.172.291-.263s.182-.191.255-.3l.108-.168a.779.779,0,0,0,.1-.173,4.1,4.1,0,0,0,.428-1.659v-.023a.467.467,0,0,1,.917-.085,3.742,3.742,0,0,1-.145,2.312,3.534,3.534,0,0,1-1.615,1.816l-.284.129a1.706,1.706,0,0,1-.29.112l-.3.084-.15.04c-.051.008-.1.012-.153.018a3.326,3.326,0,0,1-.613.035,2.735,2.735,0,0,1-.6-.066,3.909,3.909,0,0,1-2.019-1.078.433.433,0,0,1,.5-.7Z" transform="translate(-1744.357 -2003.292)" fill="#650000"/>
    </g>
  </g>
  <g id="Group_337" data-name="Group 337" transform="translate(15 18.12)">
    <g id="Group_336" data-name="Group 336" transform="translate(0 0)">
      <path id="Path_484" data-name="Path 484" d="M1093.142,1169.67q-2.279,0-4.553-.159a38.809,38.809,0,0,1-6.869-.987c-3.918-1.008-7.111-4.6-7.634-7.331a6.615,6.615,0,0,1,3.218-6.807,28.612,28.612,0,0,1-3.085-6.008,20.76,20.76,0,0,1-.2-15.129l.033-.084c.026-.066.053-.133.081-.2a16.716,16.716,0,0,1,6.858-8.3,13.566,13.566,0,0,1,8.415-1.784,11.213,11.213,0,0,1,8.052,4.364,11.212,11.212,0,0,1,6.084-6.846,13.571,13.571,0,0,1,8.519-1.188,16.724,16.724,0,0,1,9.28,5.474c.065.068.135.147.2.225a20.759,20.759,0,0,1,4.958,14.287,28.6,28.6,0,0,1-.854,6.7,6.615,6.615,0,0,1,5.343,5.3c.439,2.741-1.338,7.21-4.683,9.495a42.013,42.013,0,0,1-6.367,3.344A66.915,66.915,0,0,1,1093.142,1169.67Zm-5.173-45.445c-3.073,0-9.12,1.129-12.536,9.3-.026.06-.046.112-.067.164l-.036.091c-4.128,10.322,3.495,20.306,3.572,20.405l.546.7-.806.376c-.158.074-3.89,1.881-3.165,5.665.432,2.254,3.248,5.365,6.6,6.226a37.478,37.478,0,0,0,6.613.945,65.337,65.337,0,0,0,30.68-5.353,40.634,40.634,0,0,0,6.142-3.22c2.852-1.949,4.44-5.833,4.078-8.1-.607-3.805-4.73-4.232-4.905-4.249l-.882-.082.272-.843c.039-.12,3.8-12.1-3.6-20.4-.061-.069-.117-.134-.176-.2-7.012-7.625-14.123-4.975-16.135-3.981-3.68,1.817-5.974,5.282-5.454,8.24a.709.709,0,0,1-.576.821c-.023,0-.046.007-.069.009s-.045.011-.068.015a.709.709,0,0,1-.821-.575c-.519-2.958-3.856-5.435-7.934-5.89A11.626,11.626,0,0,0,1087.969,1124.225Z" transform="translate(-1072.686 -1118.987)" fill="#650000"/>
    </g>
  </g>
  <g id="Group_339" data-name="Group 339" transform="translate(13.672 47.345)" opacity="0.3">
    <g id="Group_338" data-name="Group 338" transform="translate(0 0)">
      <path id="Path_485" data-name="Path 485" d="M1040.662,1854.848c1.526,3.307,4.74,4.89,9.031,5.632a4.363,4.363,0,0,0,.554.182c.4.058.811.108,1.227.152.133.016.266.028.4.04,3.939.37,4.77,1.017,9.5.818a110.09,110.09,0,0,0,11.352-.786c5.313-.933,15.648-4.2,23.012-9.164,0,0,0,0,0,0a12.819,12.819,0,0,0,1.062-1.023,9.825,9.825,0,0,1-2.264,2.191c4.2-2.243,6.991-4.919,7.318-8.782a9.36,9.36,0,0,0-.514-3.691,18.977,18.977,0,0,1-2.546,3.1c-.04.041-.08.082-.123.121-3.506,3.468-10.369,8.193-23.344,11.465a42.867,42.867,0,0,1-6.171,1.084c-13.229,1.336-21.274-.731-25.771-2.784-.015-.008-.03-.013-.043-.021a19.644,19.644,0,0,1-3.455-1.991A9.278,9.278,0,0,0,1040.662,1854.848Z" transform="translate(-1039.891 -1840.414)" fill="#650000"/>
    </g>
  </g>
  <g id="Group_341" data-name="Group 341" transform="translate(28.512 44.201)">
    <g id="Group_340" data-name="Group 340" transform="translate(0)">
      <path id="Path_486" data-name="Path 486" d="M1406.491,1762.814a12.95,12.95,0,0,1,2.39.431,16.874,16.874,0,0,1,4.464,1.96c.349.218.689.456,1.023.713a6.706,6.706,0,0,1,.974.9c.041.05.08.1.12.151s.081.113.123.186a1.394,1.394,0,0,1,.122.267.851.851,0,0,1,.048.206,1.274,1.274,0,0,1,.009.136.5.5,0,0,1,0,.073c0,.032-.01.065-.017.1a1.062,1.062,0,0,1-.063.191.7.7,0,0,1-.083.137,1.27,1.27,0,0,1-.1.116c-.029.029-.055.048-.083.072s-.057.044-.087.064a.724.724,0,0,1-.072.042c-.044.023-.1.05-.134.066a2.354,2.354,0,0,1-.4.121,12.075,12.075,0,0,1-1.249.161c-.787.073-1.552.14-2.315.252a20.58,20.58,0,0,0-4.478,1.15h0a.238.238,0,0,1-.217-.42,13.683,13.683,0,0,1,4.477-1.877c.4-.093.793-.175,1.191-.248s.8-.129,1.187-.185.788-.109,1.1-.182a1.021,1.021,0,0,0,.164-.051c.007,0,0,0,0,0s0,0-.007.005a.159.159,0,0,0-.028.019.29.29,0,0,0-.026.025.317.317,0,0,0-.052.057c-.018.025-.02.036-.044.076a.42.42,0,0,0-.043.12.4.4,0,0,0-.007.062c0,.021,0,.023,0,.036a.274.274,0,0,0,0,.063c.012.054.009.051.012.063.015.031,0,.007,0,0l-.042-.061-.065-.079a5.9,5.9,0,0,0-.771-.7c-.29-.229-.6-.445-.911-.659-.632-.419-1.287-.817-1.962-1.182s-1.363-.715-2.069-1.031-1.428-.6-2.163-.886h0a.239.239,0,0,1,.1-.46Z" transform="translate(-1406.234 -1762.813)" fill="#650000"/>
    </g>
  </g>
  <g id="Group_343" data-name="Group 343" transform="translate(49.551 39.393)">
    <g id="Group_342" data-name="Group 342" transform="translate(0 0)">
      <path id="Path_487" data-name="Path 487" d="M1932.923,1644.552c-.595.517-1.179,1.027-1.732,1.57s-1.085,1.1-1.594,1.674-.991,1.171-1.442,1.78c-.221.307-.438.615-.633.93a5.916,5.916,0,0,0-.487.919l-.034.1-.019.072c0,.007-.007.036,0,0,0-.012,0-.009-.01-.063a.281.281,0,0,0-.02-.059c0-.012-.008-.013-.016-.032a.4.4,0,0,0-.028-.056.422.422,0,0,0-.081-.1c-.036-.029-.041-.039-.067-.057a.321.321,0,0,0-.068-.036.271.271,0,0,0-.033-.015.166.166,0,0,0-.032-.008c-.013,0-.005,0-.009,0s-.009,0,0,0a1.045,1.045,0,0,0,.172-.008c.315-.036.711-.122,1.093-.2s.781-.16,1.179-.23.8-.126,1.2-.173a13.688,13.688,0,0,1,4.848.24.238.238,0,0,1-.061.468h0a20.58,20.58,0,0,0-4.6.444c-.755.154-1.5.352-2.262.552a12.046,12.046,0,0,1-1.229.274,2.337,2.337,0,0,1-.419.024c-.042,0-.1-.009-.149-.016a.736.736,0,0,1-.082-.015c-.035-.009-.069-.019-.1-.031s-.065-.022-.1-.039a1.276,1.276,0,0,1-.13-.076.689.689,0,0,1-.125-.1,1.06,1.06,0,0,1-.124-.158c-.018-.028-.035-.057-.05-.086a.544.544,0,0,1-.027-.067,1.355,1.355,0,0,1-.038-.131.846.846,0,0,1-.025-.21,1.4,1.4,0,0,1,.024-.293c.015-.083.034-.144.052-.216s.041-.122.062-.184a6.7,6.7,0,0,1,.609-1.18c.227-.355.464-.694.719-1.019a16.864,16.864,0,0,1,3.53-3.364,12.934,12.934,0,0,1,2.1-1.219.239.239,0,0,1,.255.4Z" transform="translate(-1925.576 -1644.131)" fill="#650000"/>
    </g>
  </g>
  <g id="Group_345" data-name="Group 345" transform="translate(5.422 50.355)">
    <g id="Group_344" data-name="Group 344" transform="translate(0)">
      <path id="Path_488" data-name="Path 488" d="M851.347,1931.259c-1.288-3.881,8.248-3.081,11.817-4.927,1.984-1.026-.579-2.029-.5-3.405.1-1.77,2.358-3.956.87-5.454-5.468-5.5-25.3-2.486-27.133,6.524-1.033,5.068,2.788,9.413,8.774,11.727a29.89,29.89,0,0,0,16.636,1.1v-1.944Z" transform="translate(-836.232 -1914.715)" fill="#804959"/>
    </g>
  </g>
  <g id="Group_349" data-name="Group 349" transform="translate(5.422 57.855)" opacity="0.3">
    <g id="Group_348" data-name="Group 348" transform="translate(0)">
      <path id="Path_490" data-name="Path 490" d="M860.009,2111.89l1.818.629v1.944a29.9,29.9,0,0,1-16.637-1.1c-5.987-2.316-9.807-6.66-8.774-11.727a6.976,6.976,0,0,1,.629-1.782c-.237,4.537,3.434,8.374,8.931,10.5A29.343,29.343,0,0,0,860.009,2111.89Z" transform="translate(-836.248 -2099.853)" fill="#650000"/>
    </g>
  </g>
  <g id="Group_351" data-name="Group 351" transform="translate(19.37 59.37)" opacity="0.3">
    <g id="Group_350" data-name="Group 350" transform="translate(0)">
      <path id="Path_491" data-name="Path 491" d="M1193.255,2137.247c.556.985,1.855,1.788.276,2.6-3.568,1.846-13.1,1.045-11.816,4.927C1176.833,2138.7,1188.555,2138.649,1193.255,2137.247Z" transform="translate(-1180.548 -2137.247)" fill="#650000"/>
    </g>
  </g>
  <g id="Group_353" data-name="Group 353" transform="translate(4.714 49.655)">
    <g id="Group_352" data-name="Group 352" transform="translate(0 0)">
      <path id="Path_492" data-name="Path 492" d="M838.53,1921.63a29.017,29.017,0,0,1-10.363-1.826c-6.728-2.6-10.258-7.4-9.213-12.53.768-3.766,4.512-6.914,10.273-8.636,6.1-1.823,14.5-1.828,18.057,1.755,1.293,1.3.551,2.911-.045,4.2a5.759,5.759,0,0,0-.619,1.79c-.016.273.281.656.542.993a2.2,2.2,0,0,1,.684,1.792,1.88,1.88,0,0,1-1.107,1.21,20.345,20.345,0,0,1-5.6,1.376c-2.448.383-5.223.817-5.836,1.824a.964.964,0,0,0-.033.874.709.709,0,1,1-1.345.446,2.367,2.367,0,0,1,.169-2.058c.956-1.567,3.808-2.014,6.827-2.486a19.64,19.64,0,0,0,5.168-1.235,1.173,1.173,0,0,0,.368-.256,3.018,3.018,0,0,0-.412-.618,2.958,2.958,0,0,1-.837-1.943,6.667,6.667,0,0,1,.747-2.3c.629-1.365.867-2.068.327-2.611-2.737-2.755-10.049-3.368-16.646-1.4-5.244,1.568-8.63,4.324-9.29,7.562-.9,4.4,2.3,8.59,8.336,10.924a29.367,29.367,0,0,0,16.234,1.068.709.709,0,1,1,.293,1.387A32.38,32.38,0,0,1,838.53,1921.63Z" transform="translate(-818.772 -1897.433)" fill="#650000"/>
    </g>
  </g>
  <g id="Group_355" data-name="Group 355" transform="translate(24.542 50.355)">
    <g id="Group_354" data-name="Group 354" transform="translate(0 0)">
      <path id="Path_493" data-name="Path 493" d="M1316.313,1923.513c-.011.177,2.893.3,3.129,1.323a.722.722,0,0,1-.08.5c-1.361,2.711-10.073,3.3-10.8.558-.055-.209-.1-.414-.145-.618a8.349,8.349,0,0,1,5.482-9.536c3.712-.618,5.457-1.665,6.143-.494,1.161,1.984-3.832,3.79-3.675,4.107s5.193-.843,5.572.549C1322.491,1921.927,1316.325,1923.309,1316.313,1923.513Z" transform="translate(-1308.233 -1914.716)" fill="#ffca9f"/>
    </g>
  </g>
  <g id="Group_357" data-name="Group 357" transform="translate(24.725 60.475)" opacity="0.3">
    <g id="Group_356" data-name="Group 356" transform="translate(0)">
      <path id="Path_494" data-name="Path 494" d="M1323.7,2165.039c-1.361,2.711-10.072,3.3-10.8.558-.055-.209-.1-.415-.145-.618a10.959,10.959,0,0,1,2.672-.093c1.022.168,6.6.6,8.354-.347A.722.722,0,0,1,1323.7,2165.039Z" transform="translate(-1312.75 -2164.539)" fill="#650000"/>
    </g>
  </g>
  <g id="Group_360" data-name="Group 360" transform="translate(23.842 49.639)">
    <g id="Group_359" data-name="Group 359" transform="translate(0 0)">
      <g id="Group_358" data-name="Group 358">
        <path id="Path_495" data-name="Path 495" d="M1302.146,1908.072c.024-.056.017-.078.013-.05s.014.058-.007.033a1.4,1.4,0,0,0-.442-.237c-.214-.08-.456-.158-.708-.231s-.508-.174-.777-.269c-.137-.044-.27-.1-.429-.141-.041-.013-.082-.025-.135-.044-.026-.009-.055-.018-.1-.035a.737.737,0,0,1-.075-.036.649.649,0,0,1-.141-.1.557.557,0,0,1-.111-.653.565.565,0,0,1,.125-.162.655.655,0,0,1,.063-.05.838.838,0,0,1,.119-.068c.055-.026.095-.042.135-.057.3-.11.558-.2.828-.288.532-.182,1.051-.381,1.553-.606a12.483,12.483,0,0,0,1.437-.736,6.826,6.826,0,0,0,.62-.428,2.344,2.344,0,0,0,.442-.446.654.654,0,0,0,.091-.179.27.27,0,0,0,.015-.116c-.017-.074.009.007.014,0a.25.25,0,0,0-.1-.07,2.463,2.463,0,0,0-.62-.159,7.055,7.055,0,0,0-.774-.062c-.535-.017-1.088,0-1.647.033-.28.012-.561.038-.85.055l-.446.024c-.078,0-.158,0-.249,0-.045,0-.094,0-.154-.011-.029,0-.065-.009-.105-.018l-.071-.019a.872.872,0,0,1-.1-.042.718.718,0,0,1-.082-.049.528.528,0,0,1-.09-.078.629.629,0,0,1-.1-.137.572.572,0,0,1-.057-.2.579.579,0,0,1,.048-.287.592.592,0,0,1,.038-.073c.014-.022.023-.036.034-.051a.912.912,0,0,1,.172-.173c.087-.067.153-.112.221-.157.133-.087.258-.16.382-.234.245-.151.485-.292.714-.449a10.363,10.363,0,0,0,1.273-.973,4.772,4.772,0,0,0,.5-.519,1.456,1.456,0,0,0,.272-.474.439.439,0,0,0-.027-.333.537.537,0,0,0-.1-.143.232.232,0,0,0-.092-.056,1.323,1.323,0,0,0-.525-.02,6.97,6.97,0,0,0-.755.133c-.529.117-1.079.262-1.635.394s-1.121.26-1.69.367l-.427.077-.214.037c-.046.012-.071.012-.126.031a4,4,0,0,0-.652.271,8.5,8.5,0,0,0-2.435,1.92,7.553,7.553,0,0,0-1.538,2.663,7.337,7.337,0,0,0-.281,3.059c.019.26.078.517.119.776l.089.385.022.1a.608.608,0,0,0,.02.078.814.814,0,0,0,.037.1,1.677,1.677,0,0,0,.912.71,5.871,5.871,0,0,0,1.465.363,10.547,10.547,0,0,0,1.587.078,12,12,0,0,0,3.155-.487,6.661,6.661,0,0,0,1.41-.6A2.382,2.382,0,0,0,1302.146,1908.072Zm1.23.617a3.049,3.049,0,0,1-.668.863,4.627,4.627,0,0,1-.8.585,8,8,0,0,1-1.7.729,13.366,13.366,0,0,1-3.528.552,11.948,11.948,0,0,1-1.8-.087,7.219,7.219,0,0,1-1.818-.454,3.936,3.936,0,0,1-.9-.5,2.492,2.492,0,0,1-.746-.9,2.193,2.193,0,0,1-.112-.3c-.018-.056-.026-.09-.034-.126l-.026-.11-.1-.44c-.051-.3-.117-.594-.142-.9a8.749,8.749,0,0,1,.321-3.647,8.977,8.977,0,0,1,1.811-3.181,9.93,9.93,0,0,1,1.319-1.258,9.377,9.377,0,0,1,1.538-1,5.347,5.347,0,0,1,.912-.377,2.847,2.847,0,0,1,.286-.068l.2-.035.407-.074c.542-.1,1.083-.219,1.626-.347s1.089-.266,1.664-.391a8.247,8.247,0,0,1,.916-.154,2.624,2.624,0,0,1,1.153.1,1.663,1.663,0,0,1,.618.393,1.951,1.951,0,0,1,.379.554,1.865,1.865,0,0,1,.1,1.321,2.62,2.62,0,0,1-.565.986,4.509,4.509,0,0,1-.724.654,12.022,12.022,0,0,1-1.538.919c-.259.13-.511.267-.757.4-.12.068-.24.135-.346.2a1.184,1.184,0,0,0-.127.086c-.01.006-.019.023.021-.026l.019-.029a.43.43,0,0,0,.026-.05.48.48,0,0,0,.037-.235.494.494,0,0,0-.05-.178.444.444,0,0,0-.08-.116.539.539,0,0,0-.07-.062.387.387,0,0,0-.059-.035.269.269,0,0,0-.054-.022l-.02-.006c-.005,0-.007,0,0,0s.032,0,.058,0c.05,0,.112,0,.175,0,.127-.006.264-.019.4-.034.274-.031.556-.062.839-.1.567-.073,1.142-.141,1.738-.17a8.3,8.3,0,0,1,.92,0,3.292,3.292,0,0,1,1.028.212,1.655,1.655,0,0,1,.6.4,1.3,1.3,0,0,1,.245.377,1.544,1.544,0,0,1,.1.384,1.683,1.683,0,0,1-.059.722,2.034,2.034,0,0,1-.293.574,3.211,3.211,0,0,1-.764.737,5.7,5.7,0,0,1-.811.48,13.689,13.689,0,0,1-1.646.673c-.551.187-1.1.356-1.643.53-.265.088-.55.171-.776.262l-.06.026s-.005.005.027-.016a.389.389,0,0,0,.042-.034.484.484,0,0,0,.108-.142.52.52,0,0,0,.024-.422.479.479,0,0,0-.12-.183.453.453,0,0,0-.1-.073l-.027-.014c-.008,0,0,0,0,0l.07.009c.117.017.262.016.4.025a4.727,4.727,0,0,1,1.8.335,3.4,3.4,0,0,1,.48.239,2.051,2.051,0,0,1,.5.417,1.356,1.356,0,0,1,.327.8A1.472,1.472,0,0,1,1303.376,1908.689Z" transform="translate(-1290.932 -1897.045)" fill="#650000"/>
      </g>
    </g>
  </g>
  <g id="Group_362" data-name="Group 362" transform="translate(89.123 38.409)">
    <g id="Group_361" data-name="Group 361" transform="translate(0 0)">
      <path id="Path_496" data-name="Path 496" d="M2912.058,1629.7a.524.524,0,0,0,.1.882c.732.526,2.2,1.49,2.1,2.488a1.165,1.165,0,0,1-.361.714c-.7.718-3.182.65-7.255-.282a4,4,0,0,1-.964-.372,6.232,6.232,0,0,1-3.24-5.946c.312-4.032,2.5-3.935,5.693-5.352,2.794-1.238,3.644-2.509,5.233-1.805,2.688,1.191-1.97,4.686-1.888,4.823.092.156,4.708-2.615,5.308-.758C2917.8,1627.227,2912.009,1629.379,2912.058,1629.7Z" transform="translate(-2902.418 -1619.825)" fill="#ffca9f"/>
    </g>
  </g>
  <g id="Group_364" data-name="Group 364" transform="translate(92.383 50.544)" opacity="0.3">
    <g id="Group_363" data-name="Group 363" transform="translate(0 0)">
      <path id="Path_497" data-name="Path 497" d="M2991.477,1920.49a1.168,1.168,0,0,1-.362.714c-.7.717-3.182.65-7.255-.282a4.006,4.006,0,0,1-.964-.372,2.971,2.971,0,0,1,1.86-1.17C2985.848,1919.342,2989.326,1920.941,2991.477,1920.49Z" transform="translate(-2982.896 -1919.38)" fill="#650000"/>
    </g>
  </g>
  <g id="Group_366" data-name="Group 366" transform="translate(88.414 37.699)">
    <g id="Group_365" data-name="Group 365" transform="translate(0)">
      <path id="Path_498" data-name="Path 498" d="M2895.121,1618.173a25.511,25.511,0,0,1-5.426-.789,6.83,6.83,0,0,1-4.754-7.063c.289-3.716,2.123-4.406,4.445-5.279.531-.2,1.08-.406,1.668-.667a21.271,21.271,0,0,0,2.131-1.114c1.27-.733,2.274-1.312,3.676-.692a1.9,1.9,0,0,1,1.232,1.426,3.02,3.02,0,0,1-.741,2.215,3.655,3.655,0,0,1,2.449-.112,1.542,1.542,0,0,1,.867.965c.955,2.95-2.717,5.036-4.284,5.927-.17.1-.371.211-.5.288l.049.035c.849.6,2.131,1.514,2.239,2.7a1.807,1.807,0,0,1-.561,1.456A3.223,3.223,0,0,1,2895.121,1618.173Zm.575-14.448a4.1,4.1,0,0,0-1.8.764,22.866,22.866,0,0,1-2.266,1.182c-.626.277-1.22.5-1.743.7-2.206.829-3.312,1.245-3.531,4.062a5.438,5.438,0,0,0,3.657,5.572c5.7,1.306,6.556.513,6.589.479.178-.184.169-.292.165-.339-.049-.537-1.169-1.334-1.648-1.674l-.166-.119a1.3,1.3,0,0,1-.59-.939,1.207,1.207,0,0,1,.275-.871,2.726,2.726,0,0,1,1.049-.782c1.375-.781,4.235-2.406,3.636-4.258a.136.136,0,0,0-.088-.1c-.69-.3-2.846.688-3.554,1.014-.727.334-1.253.576-1.6-.005-.309-.516.055-.859.517-1.294,1.482-1.4,2.189-2.363,2.1-2.877-.009-.05-.035-.2-.409-.369A1.433,1.433,0,0,0,2895.7,1603.726Zm.035,9.434Z" transform="translate(-2884.919 -1602.307)" fill="#650000"/>
    </g>
  </g>
  <g id="Group_375" data-name="Group 375" transform="translate(17.106 102.08)">
    <g id="Group_368" data-name="Group 368" transform="translate(0.708 0.711)">
      <g id="Group_367" data-name="Group 367">
        <path id="Path_499" data-name="Path 499" d="M1155.939,3209.315s5.494,1.066,4.868,3.33c-.428,1.546-4.237.33-4.237.33a13.361,13.361,0,0,1-8.215,2.329c-2.906-.272-1.508-1.824-1.612-1.956s-2.328.945-3.143.507a.922.922,0,0,1-.308-1.485c-.012-.052-.787.059-1.037-.238-.733-.873,2.19-2.055,3.939-2.456A34.715,34.715,0,0,1,1155.939,3209.315Z" transform="translate(-1142.139 -3209.124)" fill="#ffca9f"/>
      </g>
    </g>
    <g id="Group_370" data-name="Group 370" transform="translate(0 0)">
      <g id="Group_369" data-name="Group 369">
        <path id="Path_500" data-name="Path 500" d="M1132.525,3199.2c-.332,0-.669-.015-1.01-.047a2.772,2.772,0,0,1-2.3-1.05,1.421,1.421,0,0,1-.192-.611,3.486,3.486,0,0,1-2.528.131,1.648,1.648,0,0,1-.919-1.144,1.466,1.466,0,0,1-.023-.368,1.229,1.229,0,0,1-.61-.38,1.145,1.145,0,0,1-.22-1.121c.517-1.542,4.5-2.472,4.543-2.481a35.009,35.009,0,0,1,9.984-.375l.056.009c.415.081,4.089.838,5.169,2.582a2.014,2.014,0,0,1,.246,1.633,1.6,1.6,0,0,1-.81,1c-1.133.613-3.125.162-3.99-.08A14.245,14.245,0,0,1,1132.525,3199.2Zm-2.561-3.428a.667.667,0,0,1,.561.281.858.858,0,0,1,.028.936c-.133.3-.131.377-.119.4.041.07.339.271,1.212.354a12.738,12.738,0,0,0,7.731-2.2l.291-.212.344.109c.98.312,2.627.605,3.221.284.1-.053.109-.1.118-.127a.6.6,0,0,0-.085-.508c-.566-.915-2.866-1.667-4.206-1.933a34.05,34.05,0,0,0-9.481.351,10.847,10.847,0,0,0-3.217,1.276c.478.01.763.2.847.568l.079.345-.228.271a.457.457,0,0,0-.1.243c0,.013.044.078.2.161a5.212,5.212,0,0,0,1.927-.393A3.08,3.08,0,0,1,1129.964,3195.776Z" transform="translate(-1124.657 -3191.56)" fill="#650000"/>
      </g>
    </g>
    <g id="Group_372" data-name="Group 372" transform="translate(4.719 3.037)">
      <g id="Group_371" data-name="Group 371">
        <path id="Path_501" data-name="Path 501" d="M1244.8,3267.07c-.242.115-.491.248-.728.385s-.47.285-.691.439a4.806,4.806,0,0,0-1.119,1.039.611.611,0,1,1-.91-.808l.009-.008a5.842,5.842,0,0,1,1.587-1c.273-.121.549-.227.827-.323s.554-.18.847-.254a.278.278,0,0,1,.187.521Z" transform="translate(-1241.151 -3266.536)" fill="#650000"/>
      </g>
    </g>
    <g id="Group_374" data-name="Group 374" transform="translate(1.082 2.618)">
      <g id="Group_373" data-name="Group 373">
        <path id="Path_502" data-name="Path 502" d="M1154.971,3256.744c-.232.08-.474.175-.706.273s-.462.207-.685.32a6.218,6.218,0,0,0-1.208.783.611.611,0,1,1-.8-.927.6.6,0,0,1,.1-.071l.009,0a7.3,7.3,0,0,1,1.572-.618q.395-.108.79-.188c.266-.053.525-.1.8-.134a.291.291,0,0,1,.133.564Z" transform="translate(-1151.362 -3256.174)" fill="#650000"/>
      </g>
    </g>
  </g>
</svg>
