<svg xmlns="http://www.w3.org/2000/svg" width="50" height="50" viewBox="0 0 50 50">
  <g id="image" transform="translate(-107)" opacity="0.5">
    <g id="Group_948" data-name="Group 948" transform="translate(107)">
      <g id="Group_947" data-name="Group 947">
        <path id="Path_896" data-name="Path 896" d="M45.313,0H4.688A4.687,4.687,0,0,0,0,4.688V45.313A4.687,4.687,0,0,0,4.688,50H45.313A4.687,4.687,0,0,0,50,45.313V4.688A4.687,4.687,0,0,0,45.313,0Zm1.563,45.313a1.562,1.562,0,0,1-1.562,1.563H4.688a1.562,1.562,0,0,1-1.562-1.562V4.688A1.562,1.562,0,0,1,4.688,3.125H45.313a1.562,1.562,0,0,1,1.563,1.563Z" fill="#0c3249"/>
        <path id="Path_897" data-name="Path 897" d="M106.312,243.711a1.562,1.562,0,0,0-2.2,0l-3.594,3.594-6.7-6.7a1.562,1.562,0,0,0-2.2,0L80.672,251.539a1.563,1.563,0,0,0,1.094,2.656h31.25a1.562,1.562,0,0,0,1.109-2.672Z" transform="translate(-72.39 -216.695)" fill="#0c3249"/>
        <circle id="Ellipse_50" data-name="Ellipse 50" cx="4.688" cy="4.688" r="4.688" transform="translate(25 12.5)" fill="#0c3249"/>
      </g>
    </g>
  </g>
</svg>
