<svg xmlns="http://www.w3.org/2000/svg" width="120.686" height="128.519" viewBox="0 0 120.686 128.519">
  <g id="Group_893" data-name="Group 893" transform="translate(-1114.627 -280.866)">
    <g id="Group_861" data-name="Group 861" transform="translate(1114.627 280.866)">
      <g id="Group_770" data-name="Group 770" transform="translate(15.131 120.05)">
        <path id="Path_794" data-name="Path 794" d="M1140.857,3217.029s6.828,1.326,6.049,4.138c-.531,1.922-5.266.41-5.266.41a16.6,16.6,0,0,1-10.21,2.895c-3.611-.337-1.874-2.267-2-2.431s-2.893,1.174-3.906.63a1.145,1.145,0,0,1-.383-1.845c-.015-.065-.979.074-1.289-.3-.911-1.085,2.722-2.554,4.9-3.052C1134.037,3216.263,1140.857,3217.029,1140.857,3217.029Z" transform="translate(-1123.704 -3216.791)" fill="#ffca9f"/>
      </g>
      <g id="Group_771" data-name="Group 771" transform="translate(14.397 119.314)">
        <path id="Path_795" data-name="Path 795" d="M1117.339,3209.938q-.612,0-1.243-.058c-1.445-.136-2.345-.54-2.75-1.233a1.637,1.637,0,0,1-.222-.885c-1.258.4-2.424.658-3.216.232a1.906,1.906,0,0,1-1.067-1.318,1.72,1.72,0,0,1-.015-.542,1.458,1.458,0,0,1-.8-.456,1.262,1.262,0,0,1-.246-1.25c.617-1.839,5.489-2.976,5.538-2.987a43.325,43.325,0,0,1,12.359-.463l.058.009c.51.1,5.017,1.028,6.326,3.142a2.357,2.357,0,0,1,.29,1.912,1.848,1.848,0,0,1-.934,1.147c-1.385.749-3.945.141-4.912-.132A17.55,17.55,0,0,1,1117.339,3209.938Zm-3.188-3.965a.692.692,0,0,1,.585.293.927.927,0,0,1,.016,1.011c-.077.172-.221.493-.141.632.023.039.262.385,1.622.512,5.2.488,9.665-2.724,9.709-2.756l.3-.219.355.112c1.243.4,3.343.763,4.119.343a.383.383,0,0,0,.219-.25.883.883,0,0,0-.122-.75c-.729-1.178-3.643-2.136-5.331-2.469a42.463,42.463,0,0,0-11.839.437,11.456,11.456,0,0,0-4.36,1.86c.14.015.306.018.378.019a.841.841,0,0,1,.925.592l.081.356-.235.278a.687.687,0,0,0-.152.428c.019.092.136.2.322.3.405.217,1.991-.306,2.512-.478A3.712,3.712,0,0,1,1114.151,3205.973Z" transform="translate(-1107.706 -3200.733)" fill="#650000"/>
      </g>
      <g id="Group_772" data-name="Group 772" transform="translate(20.145 122.917)">
        <path id="Path_796" data-name="Path 796" d="M1237.721,3279.964c-.313.145-.635.311-.942.482s-.61.356-.9.551a6.024,6.024,0,0,0-1.459,1.311.736.736,0,1,1-1.093-.978l.007-.006a7.276,7.276,0,0,1,2.034-1.263c.349-.154.7-.287,1.057-.409s.708-.228,1.082-.322a.335.335,0,0,1,.222.63Z" transform="translate(-1233.093 -3279.32)" fill="#650000"/>
      </g>
      <g id="Group_773" data-name="Group 773" transform="translate(15.633 121.86)">
        <path id="Path_797" data-name="Path 797" d="M1139.341,3256.931c-.608.349-1.215.717-1.8,1.1a18.484,18.484,0,0,0-1.673,1.2.735.735,0,1,1-.938-1.133.711.711,0,0,1,.11-.075,19.842,19.842,0,0,1,2-.953c.67-.279,1.337-.536,2.021-.777a.351.351,0,0,1,.291.636Z" transform="translate(-1134.661 -3256.273)" fill="#650000"/>
      </g>
      <g id="Group_774" data-name="Group 774" transform="translate(70.454 120.05)">
        <path id="Path_798" data-name="Path 798" d="M2336.717,3217.029s-6.828,1.326-6.049,4.138c.532,1.922,5.266.41,5.266.41a16.6,16.6,0,0,0,10.21,2.895c3.612-.337,1.875-2.267,2-2.431s2.894,1.174,3.907.63a1.145,1.145,0,0,0,.383-1.845c.015-.065.979.074,1.289-.3.911-1.085-2.723-2.554-4.9-3.052C2343.537,3216.263,2336.717,3217.029,2336.717,3217.029Z" transform="translate(-2330.606 -3216.791)" fill="#ffca9f"/>
      </g>
      <g id="Group_775" data-name="Group 775" transform="translate(69.723 119.314)">
        <path id="Path_799" data-name="Path 799" d="M2329.737,3209.935a17.559,17.559,0,0,1-9.163-2.88c-.967.273-3.526.881-4.911.131a1.85,1.85,0,0,1-.935-1.147,2.361,2.361,0,0,1,.29-1.912c1.31-2.114,5.817-3.042,6.327-3.141l.058-.009a43.351,43.351,0,0,1,12.358.462c.049.011,4.922,1.147,5.54,2.986a1.265,1.265,0,0,1-.247,1.251,1.445,1.445,0,0,1-.8.455,1.708,1.708,0,0,1-.015.542,1.9,1.9,0,0,1-1.068,1.319c-.792.426-1.958.165-3.216-.232a1.637,1.637,0,0,1-.222.885c-.4.694-1.3,1.1-2.75,1.232C2330.56,3209.917,2330.145,3209.935,2329.737,3209.935Zm-8.9-4.494.3.221c.043.031,4.511,3.244,9.708,2.756,1.359-.127,1.6-.475,1.621-.512.081-.139-.063-.459-.14-.632a.926.926,0,0,1,.016-1.012c.36-.456.808-.31,1.623-.04.521.171,2.108.695,2.512.478.185-.1.3-.208.321-.3a.694.694,0,0,0-.158-.435l-.22-.275.072-.352a.841.841,0,0,1,.925-.593c.073,0,.239,0,.378-.02a11.469,11.469,0,0,0-4.36-1.859c-4.937-1.132-11.357-.489-11.839-.438-1.688.333-4.6,1.292-5.331,2.47a.886.886,0,0,0-.123.75.384.384,0,0,0,.219.249c.776.42,2.876.053,4.119-.343Z" transform="translate(-2314.641 -3200.73)" fill="#650000"/>
      </g>
      <g id="Group_776" data-name="Group 776" transform="translate(83.87 122.917)">
        <path id="Path_800" data-name="Path 800" d="M2623.683,3279.332c.374.094.725.2,1.082.322s.708.255,1.057.409a7.264,7.264,0,0,1,2.034,1.264l0,0a.736.736,0,0,1-1,1.085.833.833,0,0,1-.095-.105,6.035,6.035,0,0,0-1.459-1.311c-.288-.2-.589-.377-.9-.551s-.629-.338-.943-.482l-.009,0a.335.335,0,0,1,.221-.63Z" transform="translate(-2623.266 -3279.322)" fill="#650000"/>
      </g>
      <g id="Group_777" data-name="Group 777" transform="translate(88.354 121.86)">
        <path id="Path_801" data-name="Path 801" d="M2721.555,3256.3c.683.242,1.351.5,2.02.778a19.4,19.4,0,0,1,2,.952.735.735,0,0,1-.717,1.284.793.793,0,0,1-.11-.075,18.311,18.311,0,0,0-1.674-1.2c-.587-.38-1.194-.75-1.8-1.1l0,0a.351.351,0,0,1,.291-.636Z" transform="translate(-2721.087 -3256.276)" fill="#650000"/>
      </g>
      <g id="Group_784" data-name="Group 784" transform="translate(77.241 34.167)">
        <g id="Group_778" data-name="Group 778" transform="translate(0.764 0.735)">
          <path id="Path_802" data-name="Path 802" d="M2495.31,1413.846s10.171,2.265,15.331-7.107c5.045-9.164-4.2-20.487-4.167-28.923.051-11.419,8.033-21.437,21.028-17.8,13.184,3.686,11.215,19.839,4.6,23.809-3.9,2.338-7.18,1.265-8.232-3.031s4.439-6.906,2.6-10.3-9.045-3.417-10.7,3.558,4.11,19.143,4.37,26.917a19.821,19.821,0,0,1-10.653,17.686c-7.652,3.976-13.913,2.963-13.913,2.963Z" transform="translate(-2495.31 -1359.256)" fill="#804959"/>
        </g>
        <g id="Group_780" data-name="Group 780" transform="translate(0.892 42.667)" opacity="0.3">
          <path id="Path_804" data-name="Path 804" d="M2522.805,2274.015a19.847,19.847,0,0,1-10.659,17.461c-7.651,3.976-13.913,2.962-13.913,2.962l-.131-3.94a30.455,30.455,0,0,0,13.517-3.111A20.694,20.694,0,0,0,2522.805,2274.015Z" transform="translate(-2498.103 -2274.015)" fill="#650000"/>
        </g>
        <g id="Group_781" data-name="Group 781" transform="translate(21.04 5.61)" opacity="0.3">
          <path id="Path_805" data-name="Path 805" d="M2937.825,1475.522c-.036.152-.069.307-.1.464a13.452,13.452,0,0,1,.254-4.574c1.826-6.981,9.661-6.984,11.657-3.59.944,1.6.1,3.032-.921,4.549a3.4,3.4,0,0,0-.187-.406C2946.686,1468.566,2939.484,1468.547,2937.825,1475.522Z" transform="translate(-2937.647 -1465.606)" fill="#650000"/>
        </g>
        <g id="Group_782" data-name="Group 782" transform="translate(29.19 18.045)" opacity="0.3">
          <path id="Path_806" data-name="Path 806" d="M3128.444,1737.167a11.407,11.407,0,0,1-4.636,6.966c-3.9,2.338-7.179,1.265-8.231-3.032a5.611,5.611,0,0,1,.831-4.224.68.68,0,0,0,.021.091c1.131,4.293,4.7,5.356,8.947,3.007A9.567,9.567,0,0,0,3128.444,1737.167Z" transform="translate(-3115.441 -1736.877)" fill="#650000"/>
        </g>
        <g id="Group_783" data-name="Group 783">
          <path id="Path_807" data-name="Path 807" d="M2481.66,1407.171a14.166,14.166,0,0,1-2.1-.13l-.594-.1-.312-9.312.922.206c.4.087,9.706,2.017,14.531-6.746,2.975-5.4.679-11.687-1.541-17.766-1.405-3.847-2.732-7.481-2.717-10.806.03-6.762,2.752-12.841,7.281-16.262,4.013-3.031,9.088-3.806,14.677-2.244a13.358,13.358,0,0,1,10.152,11.391c.749,5.552-1.561,11.464-5.371,13.751-2.227,1.336-4.312,1.664-6.031.947a6,6,0,0,1-3.289-4.431c-.592-2.417.594-4.31,1.641-5.979,1.088-1.737,1.72-2.865,1.023-4.149a4.234,4.234,0,0,0-4.3-1.8c-2.468.327-4.354,2.262-5.048,5.175-.923,3.881.612,9.642,2.1,15.212,1.122,4.207,2.181,8.179,2.292,11.511a20.464,20.464,0,0,1-11.047,18.361A26.851,26.851,0,0,1,2481.66,1407.171Zm-1.276-1.517a24.833,24.833,0,0,0,12.864-2.949,18.974,18.974,0,0,0,10.259-17.012c-.106-3.165-1.145-7.059-2.244-11.182-1.532-5.746-3.116-11.688-2.108-15.928.839-3.527,3.188-5.878,6.281-6.288a5.634,5.634,0,0,1,5.779,2.551c1.14,2.1.016,3.892-1.069,5.625-.979,1.562-1.9,3.038-1.459,4.853a4.619,4.619,0,0,0,2.429,3.427c1.272.531,2.9.237,4.714-.851,3.284-1.971,5.337-7.373,4.673-12.3a11.806,11.806,0,0,0-9.094-10.176c-5.132-1.435-9.767-.742-13.4,2-4.167,3.147-6.671,8.792-6.7,15.1-.013,3.063,1.27,6.577,2.628,10.3,2.224,6.089,4.744,12.99,1.448,18.976a14.3,14.3,0,0,1-10.105,7.435,17.064,17.064,0,0,1-5.106.18Z" transform="translate(-2478.651 -1343.228)" fill="#650000"/>
        </g>
      </g>
      <g id="Group_785" data-name="Group 785" transform="translate(92.451 32.998)">
        <path id="Path_808" data-name="Path 808" d="M2819.542,1335.969s10.073,2.355,9.656.169-3.72-3.068-3.72-3.068,5.417-6.146,5.194-9.356c-.252-3.643-3.842-.31-5.061.656,0,0,2.141-4.711.757-5.426-1.168-.6-4.861,3.811-4.861,3.811s1.539-4.773-.351-5.019c-2.486-.325-6.066,8.492-10.682,10.549Z" transform="translate(-2810.474 -1317.727)" fill="#ffca9f"/>
      </g>
      <g id="Group_786" data-name="Group 786" transform="translate(91.719 32.265)">
        <path id="Path_809" data-name="Path 809" d="M2811.679,1322.539a38.343,38.343,0,0,1-7.551-1.111.739.739,0,0,1-.308-.154l-9.067-7.684a.732.732,0,0,1,.175-1.229c2.206-.982,4.232-3.737,6.021-6.167,1.912-2.6,3.422-4.653,5.054-4.439a1.613,1.613,0,0,1,1.187.761,4.117,4.117,0,0,1,.351,2.494c1.447-1.427,2.947-2.472,3.916-1.971,1.135.586.964,2.318.5,3.924,1.078-.717,2.122-1.139,3-.76a2.329,2.329,0,0,1,1.2,2.206c.195,2.8-3.154,7.215-4.686,9.077,1.15.5,2.869,1.518,3.2,3.261a1.258,1.258,0,0,1-.369,1.18A4.042,4.042,0,0,1,2811.679,1322.539Zm-7.046-2.5c3.912.9,7.781,1.292,8.577.88-.348-1.356-2.392-2.188-3.168-2.4a.733.733,0,0,1-.36-1.192c1.451-1.646,5.179-6.441,5.013-8.821-.043-.628-.2-.91-.313-.961-.417-.179-1.485.434-3.172,1.824-.147.12-.278.228-.39.317a.733.733,0,0,1-1.122-.877c.928-2.044,1.339-4.006,1.1-4.439-.622.12-2.432,1.75-3.979,3.6a.733.733,0,0,1-1.259-.695c.4-1.229.792-3.343.39-3.976a.162.162,0,0,0-.139-.092c-.775-.1-2.388,2.093-3.685,3.855-1.646,2.237-3.482,4.734-5.614,6.1Z" transform="translate(-2794.493 -1301.74)" fill="#650000"/>
      </g>
      <g id="Group_787" data-name="Group 787" transform="translate(1.232 42.597)">
        <path id="Path_810" data-name="Path 810" d="M848.152,1563.837c-1.111-.428-1.824-.754-1.868-.772l0,0c-15.526-.692-21.932-8.683-23.888-12.138l0,0c-.092-.163-.172-.315-.245-.456-3.221-6.247-1.634-14.993,4.075-19.046a24.666,24.666,0,0,1,12.334-4.239,21.119,21.119,0,0,1,9.684,1.46c3.122,1.333,4.32,4.985,4.095,7.19-.678,6.626-6.021,8.345-12.766,10.277a6.263,6.263,0,0,0-1.573.656c-3.443,2.122,2.19,6.1,5.265,7,0,0,.106-.086.306-.238,1.919-1.45,12.394-8.814,17.438-.674a17.122,17.122,0,0,1,2.078,5.855c.042.214.081.432.117.656C864.854,1569.36,852.886,1565.661,848.152,1563.837Z" transform="translate(-820.502 -1527.121)" fill="#804959"/>
      </g>
      <g id="Group_788" data-name="Group 788" transform="translate(0.504 41.876)">
        <path id="Path_811" data-name="Path 811" d="M842.457,1551.775c-4.738,0-10.518-2.535-11.513-2.988-7.075-.337-13.063-2.193-17.8-5.516a21.594,21.594,0,0,1-6.81-7.469,16.732,16.732,0,0,1-1.377-10.828,14.642,14.642,0,0,1,5.679-9.15c6.4-4.547,15.964-5.749,22.731-2.858,3.534,1.51,4.779,5.551,4.535,7.938-.748,7.315-6.842,9.06-13.293,10.907-.967.277-2.119.775-2.121,1.575,0,1.459,3.132,3.8,5.592,4.6,1.647-.587,10.932-3.654,16.573-.327a8.63,8.63,0,0,1,4.111,6.593c.427,2.959-.208,5.091-1.887,6.335A7.362,7.362,0,0,1,842.457,1551.775ZM825.1,1512.853a24.046,24.046,0,0,0-13.615,4.165c-5.232,3.715-6.995,12.009-3.848,18.113a20.087,20.087,0,0,0,6.349,6.94c4.538,3.184,10.315,4.953,17.169,5.259a.736.736,0,0,1,.278.068c2.949,1.379,11.316,4.43,14.573,2.014,1.212-.9,1.653-2.564,1.309-4.949a7.236,7.236,0,0,0-3.4-5.539c-5.467-3.227-15.451.484-15.551.522a.733.733,0,0,1-.464.018c-2.4-.7-6.878-3.406-6.872-6.083,0-.944.556-2.227,3.183-2.979,7.212-2.065,11.635-3.745,12.239-9.647.193-1.886-.835-5.238-3.653-6.442A19.7,19.7,0,0,0,825.1,1512.853Z" transform="translate(-804.612 -1511.4)" fill="#650000"/>
      </g>
      <g id="Group_789" data-name="Group 789" transform="translate(16.515 41.293)">
        <path id="Path_812" data-name="Path 812" d="M1242.584,1506.827a15.543,15.543,0,0,1-2.954,8.415c-7.7,10.933-27.009,16.01-27.009,16.01s1.95,3.756,5.573,11.448q1.217,2.584,2.683,5.767c4.036,8.765,7.056,23.227,2.892,28.7-2.306,3.031-11.638,3.005-13.722.782-1.612-1.719-2.39-2.853-4.871-6.884-4.363-7.086-12.516-7.177-19.841-7.467-4.584-.181-9.373-.121-10.382,5.021-.851,4.343-1.082,8.2-3.492,9.834-1.22.828-3.166,1.011-5.664.947-5.413-.138-9.648-4.287-11.043-9.693a21.514,21.514,0,0,1-.489-9.948c1.489-8.4,10.023-10.361,10.023-10.361a44.861,44.861,0,0,0,.108-13.46l0,0c-.141-.961-.324-1.943-.555-2.928l5.782-2.758,9.5-4.527,16.436-7.838a44.172,44.172,0,0,0,15.5-5.417c1.414-.791,2.756-1.625,4.038-2.472,6.7-4.438,11.7-9.269,15.951-10.691,5.893-1.97,9.294,1.3,10.3,2.917q.182.294.335.594A8.647,8.647,0,0,1,1242.584,1506.827Z" transform="translate(-1153.895 -1498.687)" fill="#804959"/>
      </g>
      <g id="Group_791" data-name="Group 791" transform="translate(66.822 45.417)" opacity="0.3">
        <path id="Path_814" data-name="Path 814" d="M2286.781,1601.071c-7.7,10.933-27.008,16.01-27.008,16.01s1.95,3.756,5.572,11.447c-7.356-10.184-8.585-5.186-11.482-6.02-2.309-.666,3.471-3.236,2.619-4.664s-8.846-1.317-3.016-3.7c4.525-1.85,10.442,1.165,28.026-10.243a16.17,16.17,0,0,0,7.338-15.261C2290.912,1592.724,2289.052,1597.848,2286.781,1601.071Z" transform="translate(-2251.354 -1588.64)" fill="#650000"/>
      </g>
      <g id="Group_792" data-name="Group 792" transform="translate(15.783 40.566)">
        <path id="Path_815" data-name="Path 815" d="M1201,1565.128c-2.492,0-5.433-.464-6.7-1.82-1.669-1.78-2.509-3.02-4.96-7-4.022-6.533-11.414-6.818-18.562-7.093l-.685-.027c-4.759-.189-8.768.016-9.634,4.431-.145.742-.273,1.473-.4,2.18-.618,3.536-1.152,6.59-3.4,8.119-1.222.83-3.045,1.152-6.094,1.074-5.471-.139-10.187-4.256-11.734-10.243a22.293,22.293,0,0,1-.5-10.26c1.345-7.585,8.207-10.222,10.1-10.81a44.077,44.077,0,0,0-.516-15.647.733.733,0,0,1,1.427-.334,44.592,44.592,0,0,1,.456,16.7.734.734,0,0,1-.555.577c-.329.077-8.083,1.971-9.466,9.775a20.68,20.68,0,0,0,.476,9.637c1.381,5.348,5.542,9.023,10.353,9.145,2.683.067,4.3-.185,5.234-.821,1.739-1.18,2.223-3.951,2.784-7.159.125-.714.254-1.454.4-2.21,1.177-6.006,7.167-5.769,11.129-5.613l.684.027c7.181.277,15.32.59,19.753,7.789,2.543,4.13,3.258,5.142,4.781,6.766.866.924,3.623,1.486,6.557,1.334,2.877-.147,5.194-.936,6.048-2.058,4.022-5.284.857-19.627-2.973-27.948-5.263-11.432-8.213-17.126-8.242-17.182a.733.733,0,0,1,.464-1.046c.19-.05,19.145-5.139,26.6-15.723,2.277-3.235,4.086-8.375,1.691-12.216-1.106-1.773-4.341-4.318-9.448-2.611-2.562.856-5.515,3.087-8.934,5.67-6.636,5.013-14.9,11.252-26.684,12.942a.733.733,0,0,1-.208-1.45c11.414-1.636,19.507-7.749,26.009-12.661,3.522-2.661,6.564-4.958,9.353-5.89,5.972-2,9.822,1.087,11.155,3.225,2.776,4.449.8,10.234-1.736,13.834-6.912,9.818-22.628,14.907-26.549,16.052.982,1.941,3.7,7.408,7.864,16.443,3.833,8.327,7.377,23.445,2.809,29.448-1.621,2.13-5.533,2.551-7.139,2.634C1201.675,1565.119,1201.341,1565.128,1201,1565.128Zm-51.928-30.872h0Z" transform="translate(-1137.947 -1482.822)" fill="#650000"/>
      </g>
      <g id="Group_793" data-name="Group 793" transform="translate(31.638 74.093)">
        <path id="Path_816" data-name="Path 816" d="M1518.15,2231.815c0,7.613-7.723,12.859-17.43,12.859-10.065,0-16.366-5.43-16.862-12.627-.524-7.612,5.98-16.391,15.061-17.668C1510.04,2212.815,1518.15,2222.77,1518.15,2231.815Z" transform="translate(-1483.828 -2214.216)" fill="#ffca9f"/>
      </g>
      <g id="Group_802" data-name="Group 802" transform="translate(27.267 61.642)">
        <g id="Group_794" data-name="Group 794" transform="translate(0.549 0.55)">
          <path id="Path_817" data-name="Path 817" d="M1435.323,1956.011s-6.94,17.508-17.824,18.245c-12.632.856-15.7-19.533-15.7-19.533l-1.355-.129s1.71,22.355,17.038,21.706c13.8-.585,19.684-20.8,19.684-20.8Z" transform="translate(-1400.442 -1954.594)" fill="red"/>
        </g>
        <g id="Group_795" data-name="Group 795" transform="translate(0.549 0.549)" opacity="0.3">
          <path id="Path_818" data-name="Path 818" d="M1437.153,1955.487s-5.88,20.217-19.683,20.8c-15.329.648-17.039-21.707-17.039-21.707l.654.062c.5,4.623,3.2,21.07,16.385,20.513,11.627-.495,17.372-14.918,18.9-19.451Z" transform="translate(-1400.431 -1954.583)" fill="#650000"/>
        </g>
        <g id="Group_796" data-name="Group 796">
          <path id="Path_819" data-name="Path 819" d="M1405.407,1965.423c-6.2,0-11.079-3.775-14.135-10.958a39.824,39.824,0,0,1-2.813-11.269.549.549,0,0,1,.6-.589l1.355.129a.55.55,0,0,1,.491.465c.03.2,3.143,19.881,15.121,19.068,10.411-.706,17.282-17.728,17.351-17.9a.551.551,0,0,1,.363-.327l1.842-.513a.549.549,0,0,1,.675.683,45.918,45.918,0,0,1-4.728,10.318c-4.281,6.87-9.628,10.632-15.461,10.878Q1405.735,1965.424,1405.407,1965.423Zm-15.785-21.658a39.553,39.553,0,0,0,2.67,10.293c3.011,7.062,7.63,10.513,13.729,10.253,11.544-.49,17.49-15.473,18.866-19.448l-.593.165c-.94,2.267-7.689,17.625-18.195,18.337-5.411.368-9.948-3.009-13.122-9.761a41.628,41.628,0,0,1-3.089-9.815Z" transform="translate(-1388.457 -1942.605)" fill="#650000"/>
        </g>
        <g id="Group_797" data-name="Group 797" transform="translate(10.363 20.213)">
          <circle id="Ellipse_33" data-name="Ellipse 33" cx="6.221" cy="6.221" r="6.221" fill="#fce15e"/>
        </g>
        <g id="Group_798" data-name="Group 798" transform="translate(11.662 25.06)">
          <path id="Path_820" data-name="Path 820" d="M1652.718,2490.606a4.922,4.922,0,1,1-9.665-1.312,4.922,4.922,0,0,0,9.487,0A4.874,4.874,0,0,1,1652.718,2490.606Z" transform="translate(-1642.875 -2489.294)" fill="#d7b820"/>
        </g>
        <g id="Group_799" data-name="Group 799" transform="translate(8.988 18.838)">
          <path id="Path_821" data-name="Path 821" d="M1592.128,2354.941a6.221,6.221,0,1,1-6.221,6.221,6.221,6.221,0,0,1,6.221-6.221m0-1.375a7.6,7.6,0,1,0,7.6,7.6,7.605,7.605,0,0,0-7.6-7.6Z" transform="translate(-1584.532 -2353.566)" fill="#650000"/>
        </g>
      </g>
      <g id="Group_851" data-name="Group 851" transform="translate(0)">
        <g id="Group_803" data-name="Group 803" transform="translate(72.357 30.14)">
          <path id="Path_823" data-name="Path 823" d="M2372.117,1261.763a6.785,6.785,0,0,1,6.075-6.323c5.618-.732,8.854,4.394,8.744,8.581-.115,4.4-2.076,6.987-5.311,8.481a15.7,15.7,0,0,1-7.159,1.2" transform="translate(-2372.117 -1255.369)" fill="#ffca9f"/>
        </g>
        <g id="Group_805" data-name="Group 805" transform="translate(72.668 35.436)">
          <path id="Path_825" data-name="Path 825" d="M2378.9,1374.406a3.82,3.82,0,0,1,3.526-3.462,4.436,4.436,0,0,1,5,4.625,4.829,4.829,0,0,1-3.1,4.631,9.6,9.6,0,0,1-4.129.683" transform="translate(-2378.903 -1370.901)" fill="#f28475"/>
        </g>
        <g id="Group_806" data-name="Group 806" transform="translate(71.936 34.702)">
          <path id="Path_826" data-name="Path 826" d="M2365.462,1366.361c-.331,0-.538-.016-.566-.018a.732.732,0,0,1,.121-1.46,8.932,8.932,0,0,0,3.772-.623,4.12,4.12,0,0,0,2.659-3.986,4,4,0,0,0-1.283-3.021,3.473,3.473,0,0,0-2.89-.851,3.049,3.049,0,0,0-2.889,2.777.733.733,0,0,1-1.463-.079,4.54,4.54,0,0,1,4.163-4.151,4.9,4.9,0,0,1,4.065,1.22,5.508,5.508,0,0,1,1.761,4.157,5.584,5.584,0,0,1-3.532,5.275A10.07,10.07,0,0,1,2365.462,1366.361Z" transform="translate(-2362.922 -1354.898)" fill="#650000"/>
        </g>
        <g id="Group_807" data-name="Group 807" transform="translate(71.625 29.407)">
          <path id="Path_827" data-name="Path 827" d="M2360.234,1259.218c-.634,0-1.034-.036-1.084-.041a.733.733,0,0,1,.139-1.458,15.075,15.075,0,0,0,6.783-1.136c3.232-1.492,4.785-3.982,4.886-7.834a8.439,8.439,0,0,0-2.646-6.246,6.4,6.4,0,0,0-5.271-1.589,5.987,5.987,0,0,0-5.437,5.626.732.732,0,1,1-1.463-.059,7.566,7.566,0,0,1,6.712-7.02,7.827,7.827,0,0,1,6.441,1.954,9.824,9.824,0,0,1,3.13,7.372c-.115,4.413-1.992,7.4-5.736,9.127A15.9,15.9,0,0,1,2360.234,1259.218Z" transform="translate(-2356.137 -1239.383)" fill="#650000"/>
        </g>
        <g id="Group_808" data-name="Group 808" transform="translate(0.737 39.324)">
          <path id="Path_828" data-name="Path 828" d="M823.8,1460.365a6.784,6.784,0,0,0-7.483-4.571c-5.62.72-7.446,6.5-6.276,10.522,1.229,4.225,3.784,6.23,7.293,6.852a15.694,15.694,0,0,0,7.229-.659" transform="translate(-809.702 -1455.721)" fill="#ffca9f"/>
        </g>
        <g id="Group_810" data-name="Group 810" transform="translate(0.737 47.423)" opacity="0.3">
          <path id="Path_830" data-name="Path 830" d="M810.051,1634.911c1.229,4.226,3.784,6.231,7.292,6.853a15.713,15.713,0,0,0,7.229-.661l-.164-2.6a16.734,16.734,0,0,1-7.03.452,9.35,9.35,0,0,1-7.665-6.539A8.753,8.753,0,0,0,810.051,1634.911Z" transform="translate(-809.714 -1632.417)" fill="#650000"/>
        </g>
        <g id="Group_811" data-name="Group 811" transform="translate(74.203 36.292)" opacity="0.3">
          <path id="Path_831" data-name="Path 831" d="M2425.363,1392.092c-.115,4.4-2.076,6.988-5.311,8.481a15.706,15.706,0,0,1-7.16,1.2l-.5-2.556a16.721,16.721,0,0,0,6.913-1.35,9.349,9.349,0,0,0,5.75-8.272A8.726,8.726,0,0,1,2425.363,1392.092Z" transform="translate(-2412.39 -1389.594)" fill="#650000"/>
        </g>
        <g id="Group_812" data-name="Group 812" transform="translate(7.01 43.879)">
          <path id="Path_832" data-name="Path 832" d="M954.678,1557.582a3.82,3.82,0,0,0-4.29-2.452,4.435,4.435,0,0,0-3.66,5.744,4.829,4.829,0,0,0,4.171,3.691,9.6,9.6,0,0,0,4.166-.389" transform="translate(-946.544 -1555.086)" fill="#f28475"/>
        </g>
        <g id="Group_813" data-name="Group 813" transform="translate(7.01 43.878)">
          <path id="Path_833" data-name="Path 833" d="M946.732,1560.856a4.828,4.828,0,0,0,4.17,3.691c.231.036.461.061.688.075a9.933,9.933,0,0,0,3.48-.464l-.387-6.6a3.922,3.922,0,0,0-.932-1.439,3.837,3.837,0,0,0-3.359-1.012A4.436,4.436,0,0,0,946.732,1560.856Z" transform="translate(-946.549 -1555.067)" fill="#f28475"/>
        </g>
        <g id="Group_814" data-name="Group 814" transform="translate(11.182 46.863)" opacity="0.3">
          <path id="Path_834" data-name="Path 834" d="M1037.718,1624.665a3.591,3.591,0,0,0,1.673,2,13.161,13.161,0,0,0,3.48-.46l-.177-4.968a2.654,2.654,0,0,0-.883-1.058c-.088.008-.176.018-.266.03C1038.305,1620.628,1037.134,1623.04,1037.718,1624.665Z" transform="translate(-1037.574 -1620.183)" fill="#650000"/>
        </g>
        <g id="Group_815" data-name="Group 815" transform="translate(72.778 39.279)" opacity="0.3">
          <path id="Path_835" data-name="Path 835" d="M2386.973,1458.134a3.592,3.592,0,0,1-1.109,2.363,13.171,13.171,0,0,1-3.482.44l-1.092-4.85a2.66,2.66,0,0,1,.585-1.247c.087-.015.174-.028.265-.039C2385.379,1454.38,2387.125,1456.414,2386.973,1458.134Z" transform="translate(-2381.29 -1454.745)" fill="#650000"/>
        </g>
        <g id="Group_816" data-name="Group 816" transform="translate(6.277 43.147)">
          <path id="Path_836" data-name="Path 836" d="M936.831,1550.155a8.19,8.19,0,0,1-1.29-.1,5.583,5.583,0,0,1-4.756-4.2,5.506,5.506,0,0,1,.647-4.468,4.9,4.9,0,0,1,3.621-2.213,4.539,4.539,0,0,1,5.082,2.956.733.733,0,0,1-1.4.448,3.048,3.048,0,0,0-3.5-1.951,3.471,3.471,0,0,0-2.579,1.557,4,4,0,0,0-.473,3.248,4.12,4.12,0,0,0,3.585,3.18,8.928,8.928,0,0,0,3.808-.357.733.733,0,0,1,.487,1.382A10.707,10.707,0,0,1,936.831,1550.155Z" transform="translate(-930.57 -1539.122)" fill="#650000"/>
        </g>
        <g id="Group_817" data-name="Group 817" transform="translate(0 38.591)">
          <path id="Path_837" data-name="Path 837" d="M804.151,1458.827a13.114,13.114,0,0,1-2.285-.193c-4.062-.72-6.635-3.13-7.868-7.369a9.825,9.825,0,0,1,1.152-7.925,7.829,7.829,0,0,1,5.734-3.528,7.565,7.565,0,0,1,8.276,5.083.733.733,0,0,1-1.4.431,6.021,6.021,0,0,0-6.689-4.061,6.406,6.406,0,0,0-4.695,2.877,8.439,8.439,0,0,0-.971,6.714c1.077,3.7,3.211,5.714,6.717,6.335a15.067,15.067,0,0,0,6.849-.626.733.733,0,0,1,.5,1.375A16.955,16.955,0,0,1,804.151,1458.827Z" transform="translate(-793.628 -1439.734)" fill="#650000"/>
        </g>
        <g id="Group_818" data-name="Group 818" transform="translate(46.175 6.325)">
          <path id="Path_838" data-name="Path 838" d="M1802.2,735.928l-1.249-.084C1801.371,735.862,1801.788,735.89,1802.2,735.928Z" transform="translate(-1800.955 -735.844)" fill="#b17e4f"/>
        </g>
        <g id="Group_819" data-name="Group 819" transform="translate(47.424 6.409)">
          <path id="Path_839" data-name="Path 839" d="M1828.284,737.689c-.027,0-.055-.005-.083-.007l.108.007Z" transform="translate(-1828.202 -737.682)" fill="#b17e4f"/>
        </g>
        <g id="Group_820" data-name="Group 820" transform="translate(10.422 0.732)">
          <path id="Path_840" data-name="Path 840" d="M1088.591,667.492c-.52,3.983-3.535,6.622-7.987,8.748l-6.866.886-39.053,5.047c-4.845-.923-8.432-2.711-9.946-6.43-1.084-2.657-1.07-7.719,2.335-8.809-2.833-3.077-4.774-7.941-5.641-12.644-2.15-11.675,3.785-22.824,13.57-29.2a17.65,17.65,0,0,1-.235-2.837,14.334,14.334,0,0,1,.564-4.1.641.641,0,0,1,.936-.364c1.031.6,2.183,1.71,2.877,1.992a.64.64,0,0,0,.872-.483,25.551,25.551,0,0,1,1.386-5.089.64.64,0,0,1,1.024-.189,17.564,17.564,0,0,0,7.407,4.091,48.775,48.775,0,0,0,6.9,1.32h0a.039.039,0,0,1,.015,0c.769.08,1.209.09,1.331.092l.027,0h.007c14.585,1.291,27.133,11.926,28.219,26.382.357,4.769-.282,9.968-2.24,13.662,2.258.119,3.61,2.123,4.2,4.3A9.614,9.614,0,0,1,1088.591,667.492Z" transform="translate(-1020.995 -613.836)" fill="#804959"/>
        </g>
        <g id="Group_821" data-name="Group 821" transform="translate(63.167 50.762)" opacity="0.3">
          <path id="Path_841" data-name="Path 841" d="M2186.473,1708.883c-.52,3.983-3.535,6.622-7.986,8.748l-6.866.886c8.695-2.912,13.209-7.505,14.555-13.261A9.6,9.6,0,0,1,2186.473,1708.883Z" transform="translate(-2171.621 -1705.257)" fill="#650000"/>
        </g>
        <g id="Group_823" data-name="Group 823" transform="translate(9.693)">
          <path id="Path_843" data-name="Path 843" d="M1019.5,667.669a.732.732,0,0,1-.138-.013c-5.687-1.083-9.019-3.267-10.489-6.873a9.8,9.8,0,0,1,0-7.236,4.783,4.783,0,0,1,1.825-2.105,27.938,27.938,0,0,1-5.171-12.254,27.484,27.484,0,0,1,2.37-17.038,32.226,32.226,0,0,1,11.125-12.65,16.106,16.106,0,0,1,.424-6.8,1.371,1.371,0,0,1,2-.785,15.294,15.294,0,0,1,1.541,1.09,10.046,10.046,0,0,0,1.138.807,25.853,25.853,0,0,1,1.424-5.158,1.373,1.373,0,0,1,2.2-.4,16.831,16.831,0,0,0,7.08,3.908,48.728,48.728,0,0,0,6.742,1.3h.005l.019,0c.457.023.88.052,1.29.089l.1.008a33.678,33.678,0,0,1,19.6,8.442,28.689,28.689,0,0,1,7.4,31.782,4.786,4.786,0,0,1,2.3,1.57,9.812,9.812,0,0,1,1.842,7c-.5,3.861-3.173,6.82-8.4,9.314a.732.732,0,1,1-.631-1.322c4.8-2.291,7.137-4.814,7.577-8.181a8.479,8.479,0,0,0-1.516-5.874,3.14,3.14,0,0,0-2.295-1.226l-1.146-.061.537-1.014c1.753-3.31,2.539-8.144,2.156-13.264-1.018-13.549-12.567-24.347-27.477-25.7h0l-.07-.005c-.167,0-.634-.015-1.419-.1l-.051-.005a50.061,50.061,0,0,1-6.929-1.334,18.451,18.451,0,0,1-7.642-4.183,26.31,26.31,0,0,0-1.273,4.784,1.373,1.373,0,0,1-1.871,1.038,7.862,7.862,0,0,1-1.585-1.053,15.582,15.582,0,0,0-1.283-.924,14.9,14.9,0,0,0-.274,6.494l.038.234-.195.389-.167.109c-10.028,6.538-15.228,17.708-13.249,28.457.915,4.972,2.956,9.563,5.458,12.28l.777.844-1.093.35a3.143,3.143,0,0,0-1.909,1.771,8.47,8.47,0,0,0,.03,6.063c1.282,3.146,4.183,4.992,9.406,5.987a.733.733,0,0,1-.136,1.452Z" transform="translate(-1005.076 -597.866)" fill="#650000"/>
        </g>
        <g id="Group_824" data-name="Group 824" transform="translate(24.296 55.07)" opacity="0.3">
          <path id="Path_844" data-name="Path 844" d="M1373.034,1799.222c-2.7,13.054-18.4,18.106-26.532,19.042-.76,0-1.908.055-3.326.067A41.538,41.538,0,0,1,1331.6,1817a23.376,23.376,0,0,1-7.943-3.854c1.919-1.45,12.395-8.814,17.438-.673l16.436-7.838A44.161,44.161,0,0,0,1373.034,1799.222Z" transform="translate(-1323.659 -1799.222)" fill="#650000"/>
        </g>
        <g id="Group_825" data-name="Group 825" transform="translate(16.583 20.587)">
          <path id="Path_845" data-name="Path 845" d="M1181.243,1057.165c-.991-7.667-17.166-12.375-24.06,2.219-.042.087-.082.178-.122.267-5,11.019,2.809,22.022,2.809,22.022s-4.656,1.914-3.99,6.5c.4,2.723,3.426,6.242,7.05,7.351a39.875,39.875,0,0,0,6.932,1.316,68.2,68.2,0,0,0,32.359-4.147,43.141,43.141,0,0,0,6.626-3.1c3.223-1.994,5.261-6.168,4.949-8.9-.522-4.605-5.509-5.273-5.509-5.273s4.751-12.625-2.883-22.012c-.06-.075-.123-.153-.186-.227-10.376-12.363-24.825-3.7-23.834,3.971" transform="translate(-1155.391 -1046.972)" fill="#ffca9f"/>
        </g>
        <g id="Group_826" data-name="Group 826" transform="translate(43.126 26.801)">
          <path id="Path_846" data-name="Path 846" d="M1734.557,1183.659a5.36,5.36,0,0,0-.121-.641c.07-.161.145-.323.228-.482a5.754,5.754,0,0,0,.037,1.1Z" transform="translate(-1734.436 -1182.537)" fill="#f9d6b6"/>
        </g>
        <g id="Group_827" data-name="Group 827" transform="translate(17.16 49.676)" opacity="0.15">
          <path id="Path_847" data-name="Path 847" d="M1225.805,1687.38c-.276,16.779-65.01,23-57.169,2.563.619-5.4,19-8.377,19-8.377s-1.222,7.934-7.827,12.568a2.932,2.932,0,0,0,1.208,5.274C1197.143,1702.144,1223.544,1695.411,1225.805,1687.38Z" transform="translate(-1167.978 -1681.566)" fill="#650000"/>
        </g>
        <g id="Group_828" data-name="Group 828" transform="translate(15.859 19.851)">
          <path id="Path_848" data-name="Path 848" d="M1162.495,1082.706a67.789,67.789,0,0,1-7.794-.448,40.228,40.228,0,0,1-7.064-1.344c-4.008-1.227-7.145-5.1-7.558-7.946a6.855,6.855,0,0,1,3.652-6.895,29.65,29.65,0,0,1-2.913-6.365,21.511,21.511,0,0,1,.5-15.669l.038-.085c.031-.067.061-.135.093-.2a17.319,17.319,0,0,1,7.488-8.269,14.062,14.062,0,0,1,8.793-1.452,11.614,11.614,0,0,1,8.131,4.9,11.617,11.617,0,0,1,6.62-6.8,14.058,14.058,0,0,1,8.874-.83,17.329,17.329,0,0,1,9.35,6.1c.063.073.132.158.2.242a21.51,21.51,0,0,1,4.462,15.022,29.619,29.619,0,0,1-1.2,6.9,6.855,6.855,0,0,1,5.283,5.74c.325,2.857-1.724,7.4-5.292,9.608a43.529,43.529,0,0,1-6.748,3.163A69.41,69.41,0,0,1,1162.495,1082.706Zm-6.908-47.371c-3.324,0-9.131,1.246-12.819,9.052-.03.061-.053.114-.077.167l-.042.093c-4.758,10.492,2.665,21.186,2.741,21.293l.531.751-.85.35c-.167.07-4.117,1.765-3.543,5.718.342,2.354,3.112,5.707,6.539,6.757a38.9,38.9,0,0,0,6.8,1.288,67.7,67.7,0,0,0,32.012-4.1,42.136,42.136,0,0,0,6.51-3.046c3.045-1.884,4.871-5.831,4.6-8.193-.452-3.992-4.834-4.624-4.878-4.63l-.913-.122.324-.862c.046-.122,4.505-12.351-2.766-21.292-.059-.074-.115-.144-.172-.21-6.9-8.223-14.388-5.813-16.519-4.879-3.9,1.709-6.433,5.19-6.034,8.277a.733.733,0,0,1-.633.82c-.024,0-.048,0-.072.006s-.047.009-.071.012a.734.734,0,0,1-.821-.633c-.4-3.087-3.737-5.808-7.938-6.471A12.43,12.43,0,0,0,1155.587,1035.335Z" transform="translate(-1139.588 -1030.928)" fill="#650000"/>
        </g>
        <g id="Group_831" data-name="Group 831" transform="translate(27.7 44.47)">
          <ellipse id="Ellipse_36" data-name="Ellipse 36" cx="5.227" cy="5.406" rx="5.227" ry="5.406" transform="translate(0 1.34) rotate(-7.364)" fill="#650000"/>
        </g>
        <g id="Group_832" data-name="Group 832" transform="translate(30.413 49.308)">
          <ellipse id="Ellipse_37" data-name="Ellipse 37" cx="2.38" cy="2.461" rx="2.38" ry="2.461" transform="translate(0 0.61) rotate(-7.363)" fill="#fff"/>
        </g>
        <g id="Group_833" data-name="Group 833" transform="translate(33.242 46.207)">
          <ellipse id="Ellipse_38" data-name="Ellipse 38" cx="1.428" cy="1.477" rx="1.428" ry="1.477" transform="translate(0 0.366) rotate(-7.364)" fill="#fff"/>
        </g>
        <g id="Group_834" data-name="Group 834" transform="translate(50.161 41.639)">
          <ellipse id="Ellipse_39" data-name="Ellipse 39" cx="4.946" cy="5.406" rx="4.946" ry="5.406" transform="translate(0 1.268) rotate(-7.364)" fill="#650000"/>
        </g>
        <g id="Group_835" data-name="Group 835" transform="translate(46.613 53.775)">
          <path id="Path_849" data-name="Path 849" d="M1810.821,1772.77a.221.221,0,0,1-.309-.208c.006-.484.116-1.329.792-1.527a.739.739,0,0,1,1.047.767c-.06.289-.269.491-.713.646C1811.365,1772.543,1811.05,1772.671,1810.821,1772.77Z" transform="translate(-1810.512 -1770.982)" fill="#650000"/>
        </g>
        <g id="Group_836" data-name="Group 836" transform="translate(42.639 54.332)">
          <path id="Path_850" data-name="Path 850" d="M1725.577,1784.676a.222.222,0,0,0,.247-.279c-.129-.466-.45-1.256-1.155-1.275a.739.739,0,0,0-.817,1.007c.132.264.386.407.854.444C1724.993,1784.6,1725.331,1784.639,1725.577,1784.676Z" transform="translate(-1723.799 -1783.121)" fill="#650000"/>
        </g>
        <g id="Group_837" data-name="Group 837" transform="translate(42.536 58.847)">
          <path id="Path_851" data-name="Path 851" d="M1722.363,1882.59a5.018,5.018,0,0,0,1.464.613,4.381,4.381,0,0,0,1.509.075,4.154,4.154,0,0,0,1.421-.446,3.89,3.89,0,0,0,1.167-.971l.021-.025a.546.546,0,0,1,.946.5,3.443,3.443,0,0,1-1.294,1.782,4.3,4.3,0,0,1-2.066.8,4.419,4.419,0,0,1-2.177-.3,3.8,3.8,0,0,1-1.695-1.322.507.507,0,0,1,.677-.723Z" transform="translate(-1721.569 -1881.637)" fill="#650000"/>
        </g>
        <g id="Group_838" data-name="Group 838" transform="translate(52.434 46.462)">
          <ellipse id="Ellipse_40" data-name="Ellipse 40" cx="2.38" cy="2.461" rx="2.38" ry="2.461" transform="matrix(0.992, -0.128, 0.128, 0.992, 0, 0.61)" fill="#fff"/>
        </g>
        <g id="Group_839" data-name="Group 839" transform="translate(55.263 43.361)">
          <ellipse id="Ellipse_41" data-name="Ellipse 41" cx="1.428" cy="1.477" rx="1.428" ry="1.477" transform="translate(0 0.366) rotate(-7.363)" fill="#fff"/>
        </g>
        <g id="Group_850" data-name="Group 850" transform="translate(19.535 39.578)">
          <g id="Group_840" data-name="Group 840" transform="translate(0.728 3.453)">
            <path id="Path_852" data-name="Path 852" d="M1256.006,1547.546a18.682,18.682,0,0,1-5.3,6.036,8.678,8.678,0,0,1-3.987,1.833c-.267.045-.549.083-.851.111a7.529,7.529,0,0,1-1.712-.036h0a8.441,8.441,0,0,1-1.909-.485,9.028,9.028,0,0,1-.842-.363,10.391,10.391,0,0,1-2.892-2.073c-4.065-4.18-2.956-10.684-1.659-12.367a7.412,7.412,0,0,1,5.48-2.966l5.382-.5.6-.057a12.872,12.872,0,0,1,1.46-.056,10.322,10.322,0,0,1,2.445.318,8.472,8.472,0,0,1,1.021.328c1.453.573,3.289,1.595,3.824,2.49C1257.721,1540.853,1258.272,1543.379,1256.006,1547.546Z" transform="translate(-1235.666 -1536.615)" fill="#650000"/>
          </g>
          <g id="Group_841" data-name="Group 841" transform="translate(28.234 0.735)">
            <path id="Path_853" data-name="Path 853" d="M1854.1,1494.288a8.359,8.359,0,0,1-4.223,1.7,9.847,9.847,0,0,1-1.522.034,7.728,7.728,0,0,1-2.387-.516c-.411-.155-.806-.336-1.206-.528-.2-.1-.4-.2-.6-.3a18.881,18.881,0,0,1-3.7-2.544,18.271,18.271,0,0,1-2.024-2.1c-3-3.672-2.932-6.256-2.489-7.459.359-.979,1.971-2.325,3.292-3.157a10.685,10.685,0,0,1,4.731-1.5l.735-.069,5.246-.492a9.046,9.046,0,0,1,1.426-.033,7.133,7.133,0,0,1,2.375.555,7.76,7.76,0,0,1,2.136,1.373C1857.772,1480.932,1860.669,1489.356,1854.1,1494.288Z" transform="translate(-1835.72 -1477.31)" fill="#650000"/>
          </g>
          <g id="Group_842" data-name="Group 842" transform="translate(32.972 0.844)" opacity="0.5">
            <path id="Path_854" data-name="Path 854" d="M1947.932,1479.7l-5.13,17.254a18.844,18.844,0,0,1-3.7-2.544l4.245-14.279Z" transform="translate(-1939.098 -1479.699)" fill="#fff"/>
          </g>
          <g id="Group_843" data-name="Group 843" transform="translate(38.484 0.75)" opacity="0.5">
            <path id="Path_855" data-name="Path 855" d="M2067.113,1478.189l-5.395,18.141a7.707,7.707,0,0,1-2.387-.516l5.406-18.18Z" transform="translate(-2059.332 -1477.634)" fill="#fff"/>
          </g>
          <g id="Group_844" data-name="Group 844" transform="translate(3.573 3.568)" opacity="0.5">
            <path id="Path_856" data-name="Path 856" d="M1306.946,1539.121l-5.468,18.275a8.966,8.966,0,0,1-.842-.364,10.369,10.369,0,0,1-2.893-2.073l4.613-15.407Z" transform="translate(-1297.743 -1539.121)" fill="#fff"/>
          </g>
          <g id="Group_845" data-name="Group 845" transform="translate(9.219 3.456)" opacity="0.5">
            <path id="Path_857" data-name="Path 857" d="M1428.967,1536.988l-5.5,18.48c-.267.044-.549.083-.85.111a7.572,7.572,0,0,1-1.712-.037l5.617-18.872A10.328,10.328,0,0,1,1428.967,1536.988Z" transform="translate(-1420.905 -1536.671)" fill="#fff"/>
          </g>
          <g id="Group_846" data-name="Group 846" transform="translate(0 2.72)">
            <path id="Path_858" data-name="Path 858" d="M1230.035,1541.02a9.312,9.312,0,0,1-4.1-.991,10.586,10.586,0,0,1-5.817-7.3c-.767-3.29-.074-6.843,1.008-8.248a8.149,8.149,0,0,1,5.993-3.248l5.981-.561a11.365,11.365,0,0,1,5.263.637c1.517.6,3.523,1.689,4.183,2.8.565.946,1.6,3.669-1.044,8.519A19.431,19.431,0,0,1,1236,1538.9a9.3,9.3,0,0,1-5.2,2.083Q1230.417,1541.021,1230.035,1541.02Zm4.393-18.943q-.578,0-1.188.057l-5.981.562a6.672,6.672,0,0,0-4.969,2.683c-.746.969-1.439,4.028-.742,7.022a9.163,9.163,0,0,0,5.037,6.314,7.653,7.653,0,0,0,4.073.812,7.917,7.917,0,0,0,4.471-1.8,17.95,17.95,0,0,0,5.09-5.8c2.343-4.3,1.414-6.5,1.073-7.067a8.492,8.492,0,0,0-3.464-2.184h0A9.212,9.212,0,0,0,1234.428,1522.077Z" transform="translate(-1219.796 -1520.612)" fill="#650000"/>
          </g>
          <g id="Group_847" data-name="Group 847" transform="translate(27.502)">
            <path id="Path_859" data-name="Path 859" d="M1833.629,1481.474a9.359,9.359,0,0,1-4.41-1.132,19.423,19.423,0,0,1-6.579-5.141c-3.5-4.274-2.99-7.142-2.61-8.177.444-1.209,2.211-2.655,3.591-3.525a11.364,11.364,0,0,1,5.052-1.6l5.981-.561a8.148,8.148,0,0,1,6.493,2.076c1.324,1.179,2.665,4.542,2.525,7.917a10.588,10.588,0,0,1-4.358,8.251,9.118,9.118,0,0,1-4.595,1.843C1834.331,1481.457,1833.969,1481.474,1833.629,1481.474Zm2.024-18.724c-.31,0-.6.018-.862.043l-5.981.561a9.917,9.917,0,0,0-4.407,1.385h0a8.495,8.495,0,0,0-3,2.79c-.229.624-.733,2.951,2.369,6.744a17.955,17.955,0,0,0,6.08,4.749,7.921,7.921,0,0,0,4.728.94,7.646,7.646,0,0,0,3.851-1.556,9.159,9.159,0,0,0,3.774-7.141c.128-3.072-1.122-5.948-2.035-6.762A6.544,6.544,0,0,0,1835.652,1462.75Zm-11.642,1.37h0Z" transform="translate(-1819.76 -1461.28)" fill="#650000"/>
          </g>
          <g id="Group_848" data-name="Group 848" transform="translate(12.643 0.69)">
            <path id="Path_860" data-name="Path 860" d="M1496.33,1479.884a.733.733,0,0,1-.067-1.462l22.277-2.09a.733.733,0,1,1,.137,1.459l-22.277,2.09C1496.377,1479.883,1496.354,1479.884,1496.33,1479.884Z" transform="translate(-1495.599 -1476.328)" fill="#650000"/>
          </g>
          <g id="Group_849" data-name="Group 849" transform="translate(21.963 7.233)">
            <path id="Path_861" data-name="Path 861" d="M1699.66,1621.812a.732.732,0,0,1-.5-1.263,5.346,5.346,0,0,1,6.6-.619.733.733,0,0,1-.794,1.232,3.883,3.883,0,0,0-4.793.45A.729.729,0,0,1,1699.66,1621.812Z" transform="translate(-1698.927 -1619.072)" fill="#650000"/>
          </g>
        </g>
      </g>
      <g id="Group_852" data-name="Group 852" transform="translate(1.115 41.257)">
        <path id="Path_862" data-name="Path 862" d="M849.9,1507.938c-.677,6.626-6.021,8.346-12.766,10.278-3.385.969-3.088,2.795-1.551,4.441a0,0,0,0,0,0,0,13.22,13.22,0,0,0,5.241,3.21l-1.331,8.891c-13.047-1.917-18.315-9.338-19.782-12.186-3.221-6.246-2.146-16.445,4.219-20.932a19.974,19.974,0,0,1,18.357-2.6,17.123,17.123,0,0,1,3.516,1.7C848.659,1502.584,850.124,1505.734,849.9,1507.938Z" transform="translate(-817.949 -1497.889)" fill="#804959"/>
      </g>
      <g id="Group_853" data-name="Group 853" transform="translate(3.124 66.4)" opacity="0.3">
        <path id="Path_863" data-name="Path 863" d="M886.477,2055.136c.734,1.708-.35,9.925-.35,9.925a20.286,20.286,0,0,0-.453-6.523c-15.526-.692-21.932-8.683-23.888-12.138.156.159,4.635,7.545,17.775,7.863C883.291,2054.353,885.743,2053.428,886.477,2055.136Z" transform="translate(-861.785 -2046.4)" fill="#650000"/>
      </g>
      <g id="Group_855" data-name="Group 855" transform="translate(16.152 42.411)" opacity="0.3">
        <path id="Path_865" data-name="Path 865" d="M1162.9,1531.975c-.678,6.626-6.021,8.345-12.766,10.277-3.384.969-3.088,2.795-1.551,4.441-2.917-1.527-3.018-3.028-2.038-4.295a10.5,10.5,0,0,0,1.584-9.583c-1.868-5.985,4.858-8.922,7.16-9.736a17.161,17.161,0,0,1,3.516,1.705C1161.657,1526.62,1163.123,1529.77,1162.9,1531.975Z" transform="translate(-1145.984 -1523.08)" fill="#650000"/>
      </g>
      <g id="Group_856" data-name="Group 856" transform="translate(0.379 40.512)">
        <path id="Path_866" data-name="Path 866" d="M828.521,1520.394h-.033c-7.137-.319-13.175-2.177-17.945-5.523a21.6,21.6,0,0,1-6.81-7.469,18.887,18.887,0,0,1-1.556-11.585,15.479,15.479,0,0,1,6.005-10.283,20.508,20.508,0,0,1,22.692-.91c3.224,2.073,4.667,5.533,4.427,7.88-.749,7.315-6.842,9.06-13.293,10.907-.967.277-2.12.775-2.121,1.575,0,1.5,3.327,3.947,5.816,4.672a.732.732,0,0,1-.41,1.406c-2.4-.7-6.878-3.405-6.872-6.082,0-.944.556-2.228,3.183-2.98,7.212-2.065,11.635-3.745,12.239-9.647.19-1.856-1.064-4.764-3.762-6.5a19.073,19.073,0,0,0-21.056.876c-6,4.231-7.059,14.048-3.992,20a20.1,20.1,0,0,0,6.349,6.941c4.538,3.183,10.315,4.953,17.169,5.258a.733.733,0,0,1-.032,1.465Z" transform="translate(-801.887 -1481.635)" fill="#650000"/>
      </g>
      <g id="Group_857" data-name="Group 857" transform="translate(19.164 40.817)">
        <path id="Path_867" data-name="Path 867" d="M1233.451,1505.726c7.344-.338,11.737-3.293,14-.152,4.436,6.151-7.918,10.473-7.918,10.473s3.12,1.438,3.036,2.464c-.152,1.856-1.767,2.436-8.54,1.355C1225.174,1518.453,1226.137,1506.063,1233.451,1505.726Z" transform="translate(-1226.944 -1503.415)" fill="#ffca9f"/>
        <path id="Path_868" data-name="Path 868" d="M1224.014,1506.011a35.706,35.706,0,0,1-5.346-.549,7.946,7.946,0,0,1-6.959-8.578c.182-3.245,2.281-6.825,6.46-7.017h0a41.832,41.832,0,0,0,6.754-.971c3.439-.706,6.156-1.263,7.877,1.123a4.885,4.885,0,0,1,.883,4.488c-1,3.192-5.321,5.475-7.653,6.5,1.08.654,2.1,1.521,2.025,2.436a2.432,2.432,0,0,1-.9,1.825A5.011,5.011,0,0,1,1224.014,1506.011Zm-5.778-14.68c-3.271.15-4.918,3.027-5.064,5.635a6.533,6.533,0,0,0,5.727,7.049c2.668.426,6.332.9,7.349.1a.962.962,0,0,0,.343-.755,7.078,7.078,0,0,0-2.61-1.777.733.733,0,0,1,.064-1.356c.071-.025,7.1-2.526,8.24-6.162a3.454,3.454,0,0,0-.674-3.19c-1.117-1.549-2.864-1.269-6.394-.545a43.554,43.554,0,0,1-6.981,1Zm8.361,12.05ZM1218.2,1490.6h0Z" transform="translate(-1211.695 -1488.288)" fill="#650000"/>
      </g>
      <g id="Group_858" data-name="Group 858" transform="translate(30.525 40.849)">
        <path id="Path_869" data-name="Path 869" d="M1464.72,1488.994a2.643,2.643,0,0,1,1.721.445,1.72,1.72,0,0,1,.666,1.853,2.588,2.588,0,0,1-.151.424,3.146,3.146,0,0,1-.2.36,4.14,4.14,0,0,1-.507.609,6.1,6.1,0,0,1-1.182.841,14.178,14.178,0,0,1-2.5,1.063,25.124,25.124,0,0,1-2.58.7.366.366,0,0,1-.179-.709l.01,0a24.528,24.528,0,0,0,2.433-.845,13.2,13.2,0,0,0,2.249-1.143,5.012,5.012,0,0,0,.906-.738,1.875,1.875,0,0,0,.459-.835.423.423,0,0,0-.029-.274.417.417,0,0,0-.171-.175,1.092,1.092,0,0,0-.352-.116,1.7,1.7,0,0,0-.438,0l-.024,0a.733.733,0,0,1-.157-1.457Z" transform="translate(-1459.535 -1488.988)" fill="#650000"/>
      </g>
      <g id="Group_859" data-name="Group 859" transform="translate(31.875 42.156)">
        <path id="Path_870" data-name="Path 870" d="M1497.3,1517.793a1.853,1.853,0,0,1,.311,1.1,3.424,3.424,0,0,1-.134.879,5.738,5.738,0,0,1-.663,1.455,8.421,8.421,0,0,1-2.069,2.215,12.048,12.048,0,0,1-2.577,1.428,23.849,23.849,0,0,1-2.721.953.366.366,0,0,1-.225-.7l.01,0a23.152,23.152,0,0,0,2.552-1.085,11.111,11.111,0,0,0,2.274-1.454,7.241,7.241,0,0,0,1.65-2.005,4.431,4.431,0,0,0,.438-1.141,2.033,2.033,0,0,0,.047-.519.418.418,0,0,0-.066-.245.733.733,0,0,1,1.175-.876Z" transform="translate(-1488.977 -1517.499)" fill="#650000"/>
      </g>
      <g id="Group_860" data-name="Group 860" transform="translate(16.516 99.979)" opacity="0.3">
        <path id="Path_871" data-name="Path 871" d="M1225.737,2788.755c.244,4.139-.271,7.776-1.941,9.97-2.305,3.031-11.638,3.005-13.722.782-1.612-1.72-2.39-2.854-4.872-6.884-4.362-7.086-12.515-7.177-19.841-7.467-4.584-.181-9.373-.121-10.382,5.021-.851,4.343-1.082,8.2-3.492,9.834-1.219.828-3.166,1.011-5.664.947-5.413-.138-9.647-4.287-11.043-9.693a21.861,21.861,0,0,1-.775-7.805,25.962,25.962,0,0,0,.775,4.215c1.4,5.406,5.63,9.556,11.043,9.693,2.5.065,4.163-.266,5.306-1.2,2.779-2.263,2.721-7.759,2.422-9.289-.794-4.062-3.962-6.506-2.184-6.729,1.993-.25,4.493,3.131,13.994,3.334,13.874.3,19.21-5.314,21.139-4.466,2.435,1.07-2.394,4.756-.833,9.944,1.363,4.533,2.8,5.231,4.407,6.951,2.084,2.223,11.417,2.249,13.722-.782A11.875,11.875,0,0,0,1225.737,2788.755Z" transform="translate(-1153.924 -2778.935)" fill="#650000"/>
      </g>
    </g>
  </g>
</svg>
